<svg xmlns="http://www.w3.org/2000/svg" xmlns:xlink="http://www.w3.org/1999/xlink" viewBox="0 0 580.298 456.632">
  <defs>
    <style>
      .cls-1 {
        fill: #f0e4e4;
      }

      .cls-2, .cls-5 {
        fill: none;
        stroke-miterlimit: 10;
      }

      .cls-2 {
        stroke: #535461;
        stroke-width: 2px;
      }

      .cls-14, .cls-3 {
        fill: #58b1f9;
      }

      .cls-4 {
        opacity: 0.25;
      }

      .cls-5 {
        stroke: #333;
        stroke-width: 3px;
      }

      .cls-12, .cls-6 {
        opacity: 0.5;
      }

      .cls-7 {
        fill: url(#linear-gradient);
      }

      .cls-8 {
        fill: #535461;
      }

      .cls-12, .cls-9 {
        fill: #fff;
      }

      .cls-10 {
        fill: #e6e6e6;
      }

      .cls-11 {
        opacity: 0.2;
      }

      .cls-13, .cls-14 {
        opacity: 0.6;
      }

      .cls-15 {
        fill: url(#linear-gradient-2);
      }

      .cls-16 {
        fill: url(#linear-gradient-3);
      }

      .cls-17 {
        fill: #fda57d;
      }

      .cls-18 {
        fill: #edeef9;
      }

      .cls-19 {
        fill: #7a7478;
      }

      .cls-20 {
        fill: #333;
      }

      .cls-21, .cls-24 {
        opacity: 0.1;
      }

      .cls-22 {
        fill: #4d8af0;
      }

      .cls-23 {
        fill: #72351c;
      }
    </style>
    <linearGradient id="linear-gradient" x1="0.141" y1="1.022" x2="0.929" y2="-0.011" gradientUnits="objectBoundingBox">
      <stop offset="0" stop-color="gray" stop-opacity="0.251"/>
      <stop offset="0.54" stop-color="gray" stop-opacity="0.122"/>
      <stop offset="1" stop-color="gray" stop-opacity="0.102"/>
    </linearGradient>
    <linearGradient id="linear-gradient-2" x1="5.25" y1="1" x2="5.25" y2="0.001" xlink:href="#linear-gradient"/>
    <linearGradient id="linear-gradient-3" x1="2.739" y1="1" x2="2.739" y2="0" xlink:href="#linear-gradient"/>
  </defs>
  <g id="app" transform="translate(0.01)">
    <path id="Tracé_347" data-name="Tracé 347" class="cls-1" d="M334.636,663.424c8.432.555,17.344,3.48,25.016-.062,1.98-.911,3.774-2.226,5.829-2.959,4.72-1.685,9.9-.048,14.659,1.527a649.806,649.806,0,0,0,114.3,26.667c8,1.116,16.35,2.055,23.974-.548,5.576-1.9,10.4-5.562,15.926-7.617,9.028-3.35,19-2.1,28.612-1.575a183.275,183.275,0,0,0,73.978-11.268l1.24-.473a37.4,37.4,0,0,1,35.681,4.795,87.54,87.54,0,0,0,12.727,7.761,31,31,0,0,1,14.1,40.846l-.164.356c-3.918,8.542-7.185,18.1-14.864,23.529-7.24,5.117-16.741,5.329-25.6,5.35l-54.408.13c-5.644,0-11.357,0-16.837-1.329-4.925-1.212-9.508-3.487-14.049-5.747L550.406,730.73c-9.8-4.87-20.55-9.884-31.276-7.644-10.96,2.288-18.858,11.5-28.406,17.31a50.2,50.2,0,0,1-49.648.884c-7.247-4.069-13.542-10-21.447-12.556-13.056-4.226-26.927,1.623-40.359,4.425-26.139,5.453-56.929-2.007-76.958-20.043C276.515,689.871,306.8,661.6,334.636,663.424Z" transform="translate(-211.859 -300.093)"/>
    <path id="Tracé_348" data-name="Tracé 348" class="cls-2" d="M206.08,622.4s-19.94-67.663,3.74-117.516a106.875,106.875,0,0,0,8.644-67.08,179.822,179.822,0,0,0-9.494-31.509" transform="translate(-158.957 -220.267)"/>
    <path id="Tracé_349" data-name="Tracé 349" class="cls-3" d="M221.593,353.452c0,8.3-15.022,32.352-15.022,32.352s-15.022-24.057-15.022-32.352a15.022,15.022,0,1,1,30.043,0Z" transform="translate(-156.852 -183.535)"/>
    <path id="Tracé_350" data-name="Tracé 350" class="cls-3" d="M257.774,416.785c-4.507,6.966-30.194,18.995-30.194,18.995s.466-28.358,4.973-35.325a15.023,15.023,0,1,1,25.221,16.33Z" transform="translate(-168.202 -202.929)"/>
    <path id="Tracé_351" data-name="Tracé 351" class="cls-3" d="M253.7,529.012c-7.4,3.733-35.619,1.158-35.619,1.158s14.72-24.248,22.125-27.982a15.021,15.021,0,1,1,13.529,26.824Z" transform="translate(-165.21 -240.349)"/>
    <path id="Tracé_352" data-name="Tracé 352" class="cls-3" d="M233.284,616.108c-6.672,4.932-34.934,7.165-34.934,7.165s10.412-26.386,17.077-31.317a15.021,15.021,0,1,1,17.865,24.153Z" transform="translate(-158.994 -271.683)"/>
    <path id="Tracé_353" data-name="Tracé 353" class="cls-3" d="M179.445,445.656c5.953,5.781,33.674,11.768,33.674,11.768s-6.788-27.536-12.741-33.318a15.022,15.022,0,1,0-20.933,21.55Z" transform="translate(-151.604 -212.086)"/>
    <path id="Tracé_354" data-name="Tracé 354" class="cls-3" d="M154.967,546.025c7.4,3.733,35.619,1.158,35.619,1.158s-14.72-24.248-22.125-27.982a15.022,15.022,0,0,0-13.494,26.824Z" transform="translate(-142.861 -246.418)"/>
    <path id="Tracé_355" data-name="Tracé 355" class="cls-3" d="M146.976,648.158c6.672,4.932,34.934,7.165,34.934,7.165s-10.412-26.386-17.077-31.317a15.021,15.021,0,1,0-17.865,24.153Z" transform="translate(-140.89 -282.992)"/>
    <path id="Tracé_356" data-name="Tracé 356" class="cls-4" d="M221.593,353.452c0,8.3-15.022,32.352-15.022,32.352s-15.022-24.057-15.022-32.352a15.022,15.022,0,1,1,30.043,0Z" transform="translate(-156.852 -183.535)"/>
    <path id="Tracé_357" data-name="Tracé 357" class="cls-4" d="M257.774,416.785c-4.507,6.966-30.194,18.995-30.194,18.995s.466-28.358,4.973-35.325a15.023,15.023,0,1,1,25.221,16.33Z" transform="translate(-168.202 -202.929)"/>
    <path id="Tracé_358" data-name="Tracé 358" class="cls-4" d="M253.7,529.012c-7.4,3.733-35.619,1.158-35.619,1.158s14.72-24.248,22.125-27.982a15.021,15.021,0,1,1,13.529,26.824Z" transform="translate(-165.21 -240.349)"/>
    <path id="Tracé_359" data-name="Tracé 359" class="cls-4" d="M233.284,616.108c-6.672,4.932-34.934,7.165-34.934,7.165s10.412-26.386,17.077-31.317a15.021,15.021,0,1,1,17.865,24.153Z" transform="translate(-158.994 -271.683)"/>
    <path id="Tracé_360" data-name="Tracé 360" class="cls-4" d="M179.445,445.656c5.953,5.781,33.674,11.768,33.674,11.768s-6.788-27.536-12.741-33.318a15.022,15.022,0,1,0-20.933,21.55Z" transform="translate(-151.604 -212.086)"/>
    <path id="Tracé_361" data-name="Tracé 361" class="cls-4" d="M154.967,546.025c7.4,3.733,35.619,1.158,35.619,1.158s-14.72-24.248-22.125-27.982a15.022,15.022,0,0,0-13.494,26.824Z" transform="translate(-142.861 -246.418)"/>
    <path id="Tracé_362" data-name="Tracé 362" class="cls-4" d="M146.976,648.158c6.672,4.932,34.934,7.165,34.934,7.165s-10.412-26.386-17.077-31.317a15.021,15.021,0,1,0-17.865,24.153Z" transform="translate(-140.89 -282.992)"/>
    <path id="Tracé_363" data-name="Tracé 363" class="cls-3" d="M731.915,360.642c-2.534-19.865,5.4-40.311.685-59.758-3.63-15.022-14.385-27.564-17.919-42.613-5.192-22.3,6.685-45.209,21.844-62.334,10.425-11.8,23.509-22.515,39.106-24.659,9.631-1.37,19.529.747,28.42,4.672a72.109,72.109,0,0,1,38.77,42.585c2.055,6.1,3.24,12.474,5.768,18.385,4.35,10.186,12.33,18.405,17.3,28.31a53.717,53.717,0,0,1,1.822,43.407c-5.747,14.344-17.81,26.344-19.591,41.695-1.295,11.062,2.856,23.18-2.534,32.927-4.069,7.357-12.446,11.069-20.378,13.85-18.454,6.439-44.25,16.851-62.745,6.939C746.279,395.384,734.258,378.979,731.915,360.642Z" transform="translate(-369.907 -121.398)"/>
    <path id="Tracé_364" data-name="Tracé 364" class="cls-5" d="M816,441.124s27.166-10.96,30.591-17.125,8.22-42.469,8.22-42.469" transform="translate(-391.688 -199.113)"/>
    <line id="Ligne_1" data-name="Ligne 1" class="cls-5" y1="236.319" transform="translate(426.425 160.171)"/>
    <g id="Groupe_38" data-name="Groupe 38" class="cls-6" transform="translate(168.087 0)">
      <path id="Tracé_365" data-name="Tracé 365" class="cls-7" d="M659.253,98.65,431.5,99.174a9.106,9.106,0,0,0-9.336,8.857l1.034,402.321a9.112,9.112,0,0,0,9.384,8.818l227.757-.524a9.106,9.106,0,0,0,9.336-8.857l-1.027-402.321a8.6,8.6,0,0,0-2.76-6.248,9.647,9.647,0,0,0-6.631-2.57Z" transform="translate(-422.16 -98.65)"/>
    </g>
    <rect id="Rectangle_165" data-name="Rectangle 165" class="cls-8" width="239.88" height="408.237" rx="13.64" transform="translate(171.415 6.348) rotate(-0.14)"/>
    <path id="Tracé_366" data-name="Tracé 366" class="cls-9" d="M664.594,500.92a8.846,8.846,0,0,1-9.083,8.583l-209.6.477a8.853,8.853,0,0,1-9.131-8.538l-.144-57.788-.8-311.585a8.846,8.846,0,0,1,9.083-8.583l43.839-.1c1.458,8.9,9.6,15.479,19.18,15.5l82.828-.187c9.61-.032,17.755-6.654,19.173-15.588l44.524-.1a8.853,8.853,0,0,1,9.131,8.538l.856,312.106Z" transform="translate(-258.366 -106.324)"/>
    <path id="Tracé_367" data-name="Tracé 367" class="cls-10" d="M664.963,681.922a9.11,9.11,0,0,1-9.083,9.131l-209.6.507a9.11,9.11,0,0,1-9.131-9.083L437,621H664.812Z" transform="translate(-258.783 -287.905)"/>
    <rect id="Rectangle_166" data-name="Rectangle 166" class="cls-9" width="53.442" height="3.343" rx="1.671" transform="translate(262.755 22.55) rotate(-0.86)"/>
    <circle id="Ellipse_20" data-name="Ellipse 20" class="cls-9" cx="2.007" cy="2.007" r="2.007" transform="translate(322.554 20.93) rotate(-0.86)"/>
    <path id="Tracé_368" data-name="Tracé 368" class="cls-3" d="M846.915,360.642c-2.534-19.865,5.4-40.311.685-59.758-3.63-15.022-14.385-27.564-17.919-42.613-5.192-22.3,6.685-45.209,21.844-62.334,10.425-11.8,23.509-22.515,39.106-24.659,9.631-1.37,19.529.747,28.42,4.672a72.108,72.108,0,0,1,38.77,42.585c2.055,6.1,3.24,12.474,5.768,18.385,4.35,10.186,12.33,18.405,17.3,28.31a53.717,53.717,0,0,1,1.8,43.435c-5.747,14.344-17.81,26.344-19.59,41.695-1.295,11.063,2.856,23.18-2.534,32.927-4.069,7.357-12.446,11.069-20.378,13.85-18.433,6.411-44.229,16.823-62.724,6.911C861.279,395.384,849.258,378.979,846.915,360.642Z" transform="translate(-406.134 -121.398)"/>
    <path id="Tracé_369" data-name="Tracé 369" class="cls-11" d="M846.915,360.642c-2.534-19.865,5.4-40.311.685-59.758-3.63-15.022-14.385-27.564-17.919-42.613-5.192-22.3,6.685-45.209,21.844-62.334,10.425-11.8,23.509-22.515,39.106-24.659,9.631-1.37,19.529.747,28.42,4.672a72.108,72.108,0,0,1,38.77,42.585c2.055,6.1,3.24,12.474,5.768,18.385,4.35,10.186,12.33,18.405,17.3,28.31a53.717,53.717,0,0,1,1.8,43.435c-5.747,14.344-17.81,26.344-19.59,41.695-1.295,11.063,2.856,23.18-2.534,32.927-4.069,7.357-12.446,11.069-20.378,13.85-18.433,6.411-44.229,16.823-62.724,6.911C861.279,395.384,849.258,378.979,846.915,360.642Z" transform="translate(-406.134 -121.398)"/>
    <path id="Tracé_370" data-name="Tracé 370" class="cls-5" d="M931,441.124s27.167-10.96,30.591-17.125,8.22-42.469,8.22-42.469" transform="translate(-438.441 -199.113)"/>
    <line id="Ligne_2" data-name="Ligne 2" class="cls-5" y1="236.319" transform="translate(492.299 160.171)"/>
    <path id="Tracé_371" data-name="Tracé 371" class="cls-2" d="M280.762,718.566s-8.713-29.584,1.63-51.374a46.722,46.722,0,0,0,3.781-29.31,78.586,78.586,0,0,0-4.151-13.761" transform="translate(-183.875 -288.887)"/>
    <path id="Tracé_372" data-name="Tracé 372" class="cls-3" d="M287.544,601.041c0,3.624-6.562,14.138-6.562,14.138s-6.562-10.514-6.562-14.138a6.566,6.566,0,1,1,13.131,0Z" transform="translate(-182.958 -273.059)"/>
    <path id="Tracé_373" data-name="Tracé 373" class="cls-3" d="M303.363,628.719c-1.973,3.041-13.193,8.3-13.193,8.3s.206-12.391,2.171-15.44a6.565,6.565,0,0,1,11.021,7.138Z" transform="translate(-187.919 -281.446)"/>
    <path id="Tracé_374" data-name="Tracé 374" class="cls-3" d="M301.563,677.766c-3.24,1.63-15.583.507-15.583.507s6.432-10.6,9.672-12.227a6.563,6.563,0,0,1,5.911,11.72Z" transform="translate(-186.599 -301.873)"/>
    <path id="Tracé_375" data-name="Tracé 375" class="cls-3" d="M292.648,715.817c-2.918,2.158-15.268,3.13-15.268,3.13s4.548-11.528,7.466-13.7a6.565,6.565,0,1,1,7.809,10.556Z" transform="translate(-183.89 -314.038)"/>
    <path id="Tracé_376" data-name="Tracé 376" class="cls-3" d="M269.084,641.346c2.6,2.528,14.713,5.144,14.713,5.144s-2.966-12.035-5.569-14.563a6.564,6.564,0,1,0-9.145,9.419Z" transform="translate(-180.649 -285.401)"/>
    <path id="Tracé_377" data-name="Tracé 377" class="cls-3" d="M258.34,685.136c3.24,1.63,15.583.507,15.583.507s-6.432-10.6-9.672-12.227a6.563,6.563,0,1,0-5.911,11.72Z" transform="translate(-176.755 -304.194)"/>
    <path id="Tracé_378" data-name="Tracé 378" class="cls-3" d="M254.933,729.827c2.918,2.158,15.268,3.13,15.268,3.13s-4.548-11.528-7.466-13.7a6.565,6.565,0,1,0-7.809,10.556Z" transform="translate(-175.979 -318.452)"/>
    <path id="Tracé_379" data-name="Tracé 379" class="cls-4" d="M287.544,601.041c0,3.624-6.562,14.138-6.562,14.138s-6.562-10.514-6.562-14.138a6.566,6.566,0,1,1,13.131,0Z" transform="translate(-182.958 -273.059)"/>
    <path id="Tracé_380" data-name="Tracé 380" class="cls-4" d="M303.363,628.719c-1.973,3.041-13.193,8.3-13.193,8.3s.206-12.391,2.171-15.44a6.565,6.565,0,0,1,11.021,7.138Z" transform="translate(-187.919 -281.446)"/>
    <path id="Tracé_381" data-name="Tracé 381" class="cls-4" d="M301.563,677.766c-3.24,1.63-15.583.507-15.583.507s6.432-10.6,9.672-12.227a6.563,6.563,0,0,1,5.911,11.72Z" transform="translate(-186.599 -301.873)"/>
    <path id="Tracé_382" data-name="Tracé 382" class="cls-4" d="M292.648,715.817c-2.918,2.158-15.268,3.13-15.268,3.13s4.548-11.528,7.466-13.7a6.565,6.565,0,1,1,7.809,10.556Z" transform="translate(-183.89 -314.038)"/>
    <path id="Tracé_383" data-name="Tracé 383" class="cls-4" d="M269.084,641.346c2.6,2.528,14.713,5.144,14.713,5.144s-2.966-12.035-5.569-14.563a6.564,6.564,0,1,0-9.145,9.419Z" transform="translate(-180.649 -285.401)"/>
    <path id="Tracé_384" data-name="Tracé 384" class="cls-4" d="M258.34,685.136c3.24,1.63,15.583.507,15.583.507s-6.432-10.6-9.672-12.227a6.563,6.563,0,1,0-5.911,11.72Z" transform="translate(-176.755 -304.194)"/>
    <path id="Tracé_385" data-name="Tracé 385" class="cls-4" d="M254.933,729.827c2.918,2.158,15.268,3.13,15.268,3.13s-4.548-11.528-7.466-13.7a6.565,6.565,0,1,0-7.809,10.556Z" transform="translate(-175.979 -318.452)"/>
    <path id="Tracé_386" data-name="Tracé 386" class="cls-2" d="M985.109,683.768s-10.8-36.647,2.055-63.621a57.889,57.889,0,0,0,4.678-36.3A97.347,97.347,0,0,0,986.7,566.8" transform="translate(-454.15 -270.831)"/>
    <path id="Tracé_387" data-name="Tracé 387" class="cls-3" d="M993.521,538.139c0,4.493-8.131,17.515-8.131,17.515s-8.131-13.015-8.131-17.515a8.134,8.134,0,0,1,16.268,0Z" transform="translate(-453.014 -250.553)"/>
    <path id="Tracé_388" data-name="Tracé 388" class="cls-3" d="M1013.094,572.423c-2.439,3.767-16.344,10.275-16.344,10.275s.253-15.35,2.692-19.125a8.133,8.133,0,1,1,13.652,8.843Z" transform="translate(-459.153 -260.962)"/>
    <path id="Tracé_389" data-name="Tracé 389" class="cls-3" d="M1010.883,633.187c-4.007,2.055-19.3.623-19.3.623s7.966-13.124,11.98-15.152a8.132,8.132,0,0,1,7.323,14.522Z" transform="translate(-457.525 -281.087)"/>
    <path id="Tracé_390" data-name="Tracé 390" class="cls-3" d="M999.829,680.343c-3.61,2.671-18.919,3.877-18.919,3.877s5.637-14.282,9.247-16.953a8.132,8.132,0,1,1,9.672,13.076Z" transform="translate(-454.163 -301.977)"/>
    <path id="Tracé_391" data-name="Tracé 391" class="cls-3" d="M970.781,588.155c3.219,3.13,18.234,6.37,18.234,6.37s-3.678-14.912-6.9-18.036a8.131,8.131,0,0,0-11.336,11.645Z" transform="translate(-450.261 -265.969)"/>
    <path id="Tracé_392" data-name="Tracé 392" class="cls-3" d="M957.333,642.327c4.007,2.055,19.3.623,19.3.623s-7.966-13.124-11.98-15.152a8.132,8.132,0,1,0-7.323,14.522Z" transform="translate(-445.327 -284.299)"/>
    <path id="Tracé_393" data-name="Tracé 393" class="cls-3" d="M953.114,697.693c3.61,2.671,18.919,3.877,18.919,3.877s-5.637-14.282-9.247-16.953a8.132,8.132,0,1,0-9.672,13.076Z" transform="translate(-444.369 -307.442)"/>
    <path id="Tracé_394" data-name="Tracé 394" class="cls-12" d="M993.521,538.139c0,4.493-8.131,17.515-8.131,17.515s-8.131-13.015-8.131-17.515a8.134,8.134,0,0,1,16.268,0Z" transform="translate(-453.014 -250.553)"/>
    <path id="Tracé_395" data-name="Tracé 395" class="cls-12" d="M1013.094,572.423c-2.439,3.767-16.344,10.275-16.344,10.275s.253-15.35,2.692-19.125a8.133,8.133,0,1,1,13.652,8.843Z" transform="translate(-459.153 -260.962)"/>
    <path id="Tracé_396" data-name="Tracé 396" class="cls-12" d="M1010.883,633.187c-4.007,2.055-19.3.623-19.3.623s7.966-13.124,11.98-15.152a8.132,8.132,0,0,1,7.323,14.522Z" transform="translate(-457.525 -281.087)"/>
    <path id="Tracé_397" data-name="Tracé 397" class="cls-12" d="M999.829,680.343c-3.61,2.671-18.919,3.877-18.919,3.877s5.637-14.282,9.247-16.953a8.132,8.132,0,1,1,9.672,13.076Z" transform="translate(-454.163 -301.977)"/>
    <path id="Tracé_398" data-name="Tracé 398" class="cls-12" d="M970.781,588.155c3.219,3.13,18.234,6.37,18.234,6.37s-3.678-14.912-6.9-18.036a8.131,8.131,0,0,0-11.336,11.645Z" transform="translate(-450.261 -265.969)"/>
    <path id="Tracé_399" data-name="Tracé 399" class="cls-12" d="M957.333,642.327c4.007,2.055,19.3.623,19.3.623s-7.966-13.124-11.98-15.152a8.132,8.132,0,1,0-7.323,14.522Z" transform="translate(-445.327 -284.299)"/>
    <path id="Tracé_400" data-name="Tracé 400" class="cls-12" d="M953.114,697.693c3.61,2.671,18.919,3.877,18.919,3.877s-5.637-14.282-9.247-16.953a8.132,8.132,0,1,0-9.672,13.076Z" transform="translate(-444.369 -307.442)"/>
    <g id="Groupe_39" data-name="Groupe 39" class="cls-13" transform="translate(189.172 69.772)">
      <rect id="Rectangle_167" data-name="Rectangle 167" class="cls-3" width="43.839" height="43.839" rx="10.5"/>
      <rect id="Rectangle_168" data-name="Rectangle 168" class="cls-3" width="43.839" height="43.839" rx="10.5" transform="translate(54.114)"/>
      <rect id="Rectangle_169" data-name="Rectangle 169" class="cls-3" width="43.839" height="43.839" rx="10.5" transform="translate(108.227)"/>
      <rect id="Rectangle_170" data-name="Rectangle 170" class="cls-3" width="43.839" height="43.839" rx="10.5" transform="translate(162.341)"/>
    </g>
    <rect id="Rectangle_171" data-name="Rectangle 171" class="cls-3" width="43.839" height="43.839" rx="10.5" transform="translate(195.79 127.877)"/>
    <rect id="Rectangle_172" data-name="Rectangle 172" class="cls-14" width="43.839" height="43.839" rx="10.5" transform="translate(245.405 127.877)"/>
    <rect id="Rectangle_173" data-name="Rectangle 173" class="cls-14" width="43.839" height="43.839" rx="10.5" transform="translate(295.019 127.877)"/>
    <rect id="Rectangle_174" data-name="Rectangle 174" class="cls-14" width="43.839" height="43.839" rx="10.5" transform="translate(344.633 127.877)"/>
    <g id="Groupe_40" data-name="Groupe 40" class="cls-13" transform="translate(188.772 189.922)">
      <rect id="Rectangle_175" data-name="Rectangle 175" class="cls-3" width="43.839" height="43.839" rx="10.5"/>
      <rect id="Rectangle_176" data-name="Rectangle 176" class="cls-3" width="43.839" height="43.839" rx="10.5" transform="translate(54.114)"/>
      <rect id="Rectangle_177" data-name="Rectangle 177" class="cls-3" width="43.839" height="43.839" rx="10.5" transform="translate(108.227)"/>
      <rect id="Rectangle_178" data-name="Rectangle 178" class="cls-3" width="43.839" height="43.839" rx="10.5" transform="translate(162.341)"/>
    </g>
    <g id="Groupe_41" data-name="Groupe 41" class="cls-13" transform="translate(188.578 251.967)">
      <rect id="Rectangle_179" data-name="Rectangle 179" class="cls-3" width="43.839" height="43.839" rx="10.5"/>
      <rect id="Rectangle_180" data-name="Rectangle 180" class="cls-3" width="43.839" height="43.839" rx="10.5" transform="translate(54.114)"/>
      <rect id="Rectangle_181" data-name="Rectangle 181" class="cls-3" width="43.839" height="43.839" rx="10.5" transform="translate(108.227)"/>
      <rect id="Rectangle_182" data-name="Rectangle 182" class="cls-3" width="43.839" height="43.839" rx="10.5" transform="translate(162.341)"/>
    </g>
    <path id="Tracé_401" data-name="Tracé 401" class="cls-15" d="M478.32,347.859v3.959l-16.7-10.549,1.76-2.2.815.479,12.926-18.94V309.6l4.925.438v-1.76c13.015-14.946,14.323,1.76,11.645,6.6a29.354,29.354,0,0,1-7.61,8.35c-2.74,2.3-7.535,19.7-8.692,24.063Z" transform="translate(-259.871 -170.748)"/>
    <path id="Tracé_402" data-name="Tracé 402" class="cls-16" d="M300.824,368.71h0s12.748,24.94,8.788,49.88c-1.329,8.384-.774,13.508.555,16.631a30.584,30.584,0,0,1-2.74,9.74c-4.836,10.11-4.836,20.659,1.315,32.968l1.76,63.7s2.2,29.886,0,36.044.877,35.619.877,35.619h-.438v16.261l32.934.884s7.72-3.665,9.09-6.4l16.549,5.089s18.214-3.137,7.535-7.48c-7.953-3.233-9.925-7.857-10.419-9.994l26.029-74.841s-4.836-63.7-22.42-85.712l-1.781-12.96h.247l3.733-75.67.308.041h-.089a83.9,83.9,0,0,0,29.016-.445,45.208,45.208,0,0,0,8.4-2.349l.5-.2h.1a25.44,25.44,0,0,0,5.713-3.26l10.96-16.789-16.7-11.508-5.713,8.151s-17.9-3.781-27.728-7.768a42,42,0,0,0-14.385-3.089l-10.734-.37-5.35-3.213,1.671-4.322c.164-.075.329-.151.493-.24l.151-.925a25.639,25.639,0,0,0,18.707-31.05h.349c-.151-8.9-2.877-9.775-2.877-9.775,0-9.055-7.912-15.679-16.926-16.44a44.82,44.82,0,0,0-13.9,1.219,16.172,16.172,0,0,0-12.33,14.056c-11.775,3.24-7.829,9.4-8.014,11.768-.9,11.508,2.74,18.31,6.781,22.276a21.235,21.235,0,0,0,5.939,4.356l-2.569,5.144h-.754l-2.1,6.165h-.1l-2.288,1.48A42.942,42.942,0,0,0,300.824,368.71ZM335.984,613.3V593.522l8.35-58.456V505.173l14.953,31.187-16.1,67.649-.843-.233-3.706,13.316a8.747,8.747,0,0,1-2.651-3.795Z" transform="translate(-201.628 -173.81)"/>
    <path id="Tracé_403" data-name="Tracé 403" class="cls-17" d="M475.326,318.264V328.82L462.75,347.246l12.576,8.186s5.589-21.536,8.6-24.07a28.27,28.27,0,0,0,7.309-8.021c2.576-4.644,1.288-20.693-11.186-6.336V318.7Z" transform="translate(-260.181 -173.823)"/>
    <path id="Tracé_404" data-name="Tracé 404" class="cls-17" d="M334.843,352.795l4.98-9.96a1.843,1.843,0,0,1,1.555-1.021l18.912-.966a1.843,1.843,0,0,1,1.815,2.507l-4.877,12.611a1.843,1.843,0,0,1-1.884,1.171l-19.008-1.692a1.843,1.843,0,0,1-1.493-2.651Z" transform="translate(-212.67 -183.759)"/>
    <path id="Tracé_405" data-name="Tracé 405" class="cls-18" d="M194.6,253.4l-3.213,9.419,32.989-1.185-12.672-7.6Z" transform="translate(-70.997 -88.912)"/>
    <path id="Tracé_406" data-name="Tracé 406" class="cls-18" d="M318.47,266.3l1.685-2.11,14.357,8.446v3.8Z" transform="translate(-117.643 -92.755)"/>
    <path id="Tracé_407" data-name="Tracé 407" class="cls-19" d="M315.161,502.32a31.379,31.379,0,0,1-2.226,19.33c-4.644,9.713-4.644,19.865,1.267,31.674l1.692,61.238s2.11,28.721,0,34.633.829,34.215.829,34.215h23.652V664.4l8.021-56.169V579.5l14.385,29.989-16.44,69.266,21.536,8.87,27.029-77.711s-4.685-61.238-21.577-82.349l-3.178-23.022Z" transform="translate(-204.381 -250.518)"/>
    <path id="Tracé_408" data-name="Tracé 408" class="cls-20" d="M319.4,782.315V766.69h24.07s1.692,6.336,12.672,7.6-5.069,8.871-5.069,8.871Z" transform="translate(-207.238 -333.799)"/>
    <path id="Tracé_409" data-name="Tracé 409" class="cls-20" d="M357.36,768.37l4.192-15.07,23.194,6.459s-.075,6.555,10.165,10.72-7.261,7.185-7.261,7.185Z" transform="translate(-221.35 -329.581)"/>
    <path id="Tracé_410" data-name="Tracé 410" class="cls-21" d="M372.707,506.4l-55-2.226a30.769,30.769,0,0,1,.418,9.973c2.514,5.918,7.912,4.3,7.912,4.3l48.12-1.48Z" transform="translate(-206.888 -241.095)"/>
    <path id="Tracé_411" data-name="Tracé 411" class="cls-22" d="M324.547,360.68l-2.192,1.486a41.263,41.263,0,0,0-17.447,41.606h0s12.247,23.974,8.446,47.949S321.8,472,321.8,472l48.36-1.486,3.589-72.711s29.139,4.144,42.236-5.994l10.556-16.131L410.492,364.6l-5.48,7.836s-17.2-3.63-26.646-7.466A40.353,40.353,0,0,0,364.515,362Z" transform="translate(-203.093 -193.184)"/>
    <path id="Tracé_412" data-name="Tracé 412" class="cls-21" d="M334.418,531.47s-2.959,14.782,13.939,39.277" transform="translate(-212.275 -251.565)"/>
    <path id="Tracé_413" data-name="Tracé 413" class="cls-21" d="M406,411.834s20.269-6.754,29.139-6.754,7.391,3.829,7.391,3.829S428.406,415.211,406,411.834Z" transform="translate(-239.323 -206.13)"/>
    <path id="Tracé_414" data-name="Tracé 414" class="cls-21" d="M368.472,342.1l-8.069.966c-.253,0-.486.349-.623.849,1.774,3.2,3.993,5.1,6.4,5.1a4.98,4.98,0,0,0,2.445-.685l.616-3.733C369.452,343.359,369.041,342.03,368.472,342.1Z" transform="translate(-221.624 -184.024)"/>
    <circle id="Ellipse_21" data-name="Ellipse 21" class="cls-17" cx="24.632" cy="24.632" r="24.632" transform="translate(117.589 116.499)"/>
    <path id="Tracé_415" data-name="Tracé 415" class="cls-21" d="M372.433,286.9h0l-1.26,1.137a4.261,4.261,0,0,0,1.24,7.076h0s-11.035,11.035-12.569,13.083.253,7.439.253,7.439,4.877,8.98-20.782,6.925c0,0-16.933-3.589-15.138-26.427.178-2.288-3.589-8.22,7.7-11.289h0a15.536,15.536,0,0,1,11.9-13.494,43.066,43.066,0,0,1,13.357-1.171A16.768,16.768,0,0,1,372.433,286.9Z" transform="translate(-208.986 -159.423)"/>
    <path id="Tracé_416" data-name="Tracé 416" class="cls-23" d="M372.769,285.369h0s2.617.808,2.74,9.391l-3.719-.253s-8.6,23.015-7.7,20.015c3.336-11.035-3.336-8.98-4.877-6.925s.253,7.439.253,7.439,4.877,8.98-20.782,6.925c0,0-16.933-3.589-15.138-26.427.178-2.288-3.589-8.22,7.7-11.289h0a15.535,15.535,0,0,1,11.878-13.5,43.067,43.067,0,0,1,13.357-1.171C365.166,270.306,372.769,276.683,372.769,285.369Z" transform="translate(-208.819 -159.207)"/>
    <g id="Groupe_42" data-name="Groupe 42" class="cls-13" transform="translate(189.184 346.795)">
      <rect id="Rectangle_183" data-name="Rectangle 183" class="cls-3" width="43.839" height="43.839" rx="10.5"/>
      <rect id="Rectangle_184" data-name="Rectangle 184" class="cls-3" width="43.839" height="43.839" rx="10.5" transform="translate(54.114)"/>
      <rect id="Rectangle_185" data-name="Rectangle 185" class="cls-3" width="43.839" height="43.839" rx="10.5" transform="translate(108.227)"/>
      <rect id="Rectangle_186" data-name="Rectangle 186" class="cls-3" width="43.839" height="43.839" rx="10.5" transform="translate(162.341)"/>
    </g>
    <g id="Groupe_43" data-name="Groupe 43" class="cls-24" transform="translate(189.184 346.795)">
      <rect id="Rectangle_187" data-name="Rectangle 187" width="43.839" height="43.839" rx="10.5"/>
      <rect id="Rectangle_188" data-name="Rectangle 188" width="43.839" height="43.839" rx="10.5" transform="translate(54.114)"/>
      <rect id="Rectangle_189" data-name="Rectangle 189" width="43.839" height="43.839" rx="10.5" transform="translate(108.227)"/>
      <rect id="Rectangle_190" data-name="Rectangle 190" width="43.839" height="43.839" rx="10.5" transform="translate(162.341)"/>
    </g>
  </g>
</svg>
