<svg xmlns="http://www.w3.org/2000/svg" xmlns:xlink="http://www.w3.org/1999/xlink" viewBox="0 0 620.624 489.98">
  <defs>
    <style>
      .cls-1, .cls-3 {
        fill: #58b1f9;
      }

      .cls-1, .cls-19, .cls-5 {
        opacity: 0.1;
      }

      .cls-2 {
        fill: none;
        stroke: #535461;
        stroke-miterlimit: 10;
        stroke-width: 2px;
      }

      .cls-4 {
        opacity: 0.25;
      }

      .cls-6 {
        fill: #ffd037;
      }

      .cls-7 {
        fill: #a8a8a8;
      }

      .cls-12, .cls-8 {
        opacity: 0.2;
      }

      .cls-9 {
        fill: url(#linear-gradient);
      }

      .cls-10 {
        fill: #fff;
      }

      .cls-11, .cls-12 {
        fill: #5a5773;
      }

      .cls-13 {
        fill: url(#linear-gradient-2);
      }

      .cls-14 {
        fill: #efb7b9;
      }

      .cls-15 {
        fill: #ff6484;
      }

      .cls-16 {
        fill: #444053;
      }

      .cls-17 {
        fill: #a1616a;
      }

      .cls-18 {
        fill: #925978;
      }
    </style>
    <linearGradient id="linear-gradient" x1="0.5" y1="1" x2="0.5" gradientUnits="objectBoundingBox">
      <stop offset="0" stop-color="gray" stop-opacity="0.251"/>
      <stop offset="0.54" stop-color="gray" stop-opacity="0.122"/>
      <stop offset="1" stop-color="gray" stop-opacity="0.102"/>
    </linearGradient>
    <linearGradient id="linear-gradient-2" x1="0.5" x2="0.5" xlink:href="#linear-gradient"/>
  </defs>
  <g id="sale" transform="translate(0.01 0.019)">
    <path id="Tracé_417" data-name="Tracé 417" class="cls-1" d="M690.492,370.18c-.552.436-1.059.861-1.6,1.274a53.343,53.343,0,0,1-6.25,4.131c-11.352,6.487-25.345,9.656-38.975,11.808-30.569,4.831-61.778,5.77-92.854,6.69-83.968,2.5-168.14,4.992-251.9-.765-33.1-2.272-66.918-6.075-96.908-17.734q-6.448-2.5-12.642-5.513A102.532,102.532,0,0,1,166.3,355.125c-6.272-5.548-11.357-11.922-14.4-19.168-6.338-15.091-2.984-32.041,4.253-46.833a147.635,147.635,0,0,1,10.144-17.2c5.588-8.329,11.749-16.418,17.369-24.741,20-29.584,33.051-67.012,14.589-97.355-5.306-8.717-12.973-16.37-17.3-25.47-5.516-11.641-5.091-24.567-3.337-37.123q.342-2.392.723-4.735c3-18.618,8.632-38.678,26.013-50.3,18.053-12.077,43.691-11.468,66.1-7.175C305.3,31.766,337.444,45.8,369.927,58.48s66.466,24.257,102.165,25.5c31.523,1.1,68.292-7.133,89.213-28.532,20.32-20.783,58.518-22.367,86.047-9.811,18.9,8.616,33,24.137,38.942,41.6a58,58,0,0,1,2.587,10.834,54.1,54.1,0,0,1,.463,10.218c-.083,1.686-.243,3.354-.463,5-4.6,34.451-37.712,61.625-57.839,92.4-9.835,15.031-16.779,33.087-10.017,49.3,10.315,24.7,46.184,33.482,67.845,51.861a53.479,53.479,0,0,1,10.646,11.838C710.024,335.041,706.146,357.134,690.492,370.18Z" transform="translate(-84.792 -21.77)"/>
    <g id="flowers" transform="translate(-0.01 -0.019)">
      <path id="Tracé_418" data-name="Tracé 418" class="cls-2" d="M216.107,267.161s-27.5-48.74-68.949-62.779a84.772,84.772,0,0,1-42.953-32.131A142.3,142.3,0,0,1,91.53,149.46" transform="translate(-61.851 -72.918)"/>
      <path id="Tracé_419" data-name="Tracé 419" class="cls-3" d="M45.507,120.622c4.723,4.562,26.714,9.345,26.714,9.345S66.84,108.132,62.1,103.546a11.916,11.916,0,1,0-16.6,17.1Z" transform="translate(-41.89 -53.102)"/>
      <path id="Tracé_420" data-name="Tracé 420" class="cls-3" d="M62.293,184.587c6.451,1.279,27.5-6.69,27.5-6.69s-16.412-15.4-22.869-16.681a11.915,11.915,0,1,0-4.634,23.374Z" transform="translate(-46.233 -77.552)"/>
      <path id="Tracé_421" data-name="Tracé 421" class="cls-3" d="M133.608,256.5c6.218-2.152,20.328-19.653,20.328-19.653s-21.931-5.016-28.143-2.864a11.916,11.916,0,1,0,7.773,22.517Z" transform="translate(-72.258 -106.688)"/>
      <path id="Tracé_422" data-name="Tracé 422" class="cls-3" d="M204.68,297.314c6.493-1.076,23.378-15.934,23.378-15.934s-20.765-8.652-27.258-7.581a11.917,11.917,0,0,0,3.88,23.515Z" transform="translate(-101.776 -122.878)"/>
      <path id="Tracé_423" data-name="Tracé 423" class="cls-3" d="M129.364,152.545c0,6.577-11.9,25.668-11.9,25.668s-11.922-19.079-11.928-25.656a11.916,11.916,0,1,1,23.826,0Z" transform="translate(-67.482 -69.264)"/>
      <path id="Tracé_424" data-name="Tracé 424" class="cls-3" d="M210.489,199.884c-1.967,6.278-19.037,20.926-19.037,20.926s-5.668-21.793-3.725-28.1a11.916,11.916,0,0,1,22.72,7.121Z" transform="translate(-100.369 -87.146)"/>
      <path id="Tracé_425" data-name="Tracé 425" class="cls-3" d="M282,259.468c-.873,6.523-15.222,23.844-15.222,23.844s-9.267-20.5-8.371-27.019a11.915,11.915,0,1,1,23.618,3.175Z" transform="translate(-128.929 -111.722)"/>
      <path id="Tracé_426" data-name="Tracé 426" class="cls-4" d="M45.507,120.622c4.723,4.562,26.714,9.345,26.714,9.345S66.84,108.132,62.1,103.546a11.916,11.916,0,1,0-16.6,17.1Z" transform="translate(-41.89 -53.102)"/>
      <path id="Tracé_427" data-name="Tracé 427" class="cls-4" d="M62.293,184.587c6.451,1.279,27.5-6.69,27.5-6.69s-16.412-15.4-22.869-16.681a11.915,11.915,0,1,0-4.634,23.374Z" transform="translate(-46.233 -77.552)"/>
      <path id="Tracé_428" data-name="Tracé 428" class="cls-4" d="M133.608,256.5c6.218-2.152,20.328-19.653,20.328-19.653s-21.931-5.016-28.143-2.864a11.916,11.916,0,1,0,7.773,22.517Z" transform="translate(-72.258 -106.688)"/>
      <path id="Tracé_429" data-name="Tracé 429" class="cls-4" d="M204.68,297.314c6.493-1.076,23.378-15.934,23.378-15.934s-20.765-8.652-27.258-7.581a11.917,11.917,0,0,0,3.88,23.515Z" transform="translate(-101.776 -122.878)"/>
      <path id="Tracé_430" data-name="Tracé 430" class="cls-4" d="M129.364,152.545c0,6.577-11.9,25.668-11.9,25.668s-11.922-19.079-11.928-25.656a11.916,11.916,0,1,1,23.826,0Z" transform="translate(-67.482 -69.264)"/>
      <path id="Tracé_431" data-name="Tracé 431" class="cls-4" d="M210.489,199.884c-1.967,6.278-19.037,20.926-19.037,20.926s-5.668-21.793-3.725-28.1a11.916,11.916,0,0,1,22.72,7.121Z" transform="translate(-100.369 -87.146)"/>
      <path id="Tracé_432" data-name="Tracé 432" class="cls-4" d="M282,259.468c-.873,6.523-15.222,23.844-15.222,23.844s-9.267-20.5-8.371-27.019a11.915,11.915,0,1,1,23.618,3.175Z" transform="translate(-128.929 -111.722)"/>
      <path id="Tracé_433" data-name="Tracé 433" class="cls-2" d="M252.727,238.371s-5.381-55.712-37.6-85.343a84.746,84.746,0,0,1-26.248-46.779A142.387,142.387,0,0,1,186.54,80.27" transform="translate(-100.054 -45.096)"/>
      <path id="Tracé_434" data-name="Tracé 434" class="cls-3" d="M152.2,37.823c2.463,6.1,20.645,19.348,20.645,19.348s3.916-22.152,1.459-28.256a11.924,11.924,0,0,0-22.122,8.909Z" transform="translate(-85.889 -21.441)"/>
      <path id="Tracé_435" data-name="Tracé 435" class="cls-3" d="M141.6,103.117c5.381,3.785,27.844,5.022,27.844,5.022s-8.711-20.723-14.092-24.508A11.925,11.925,0,0,0,141.6,103.117Z" transform="translate(-79.955 -45.571)"/>
      <path id="Tracé_436" data-name="Tracé 436" class="cls-3" d="M177.791,197.757c6.577.556,26.57-9.722,26.57-9.722s-18.015-13.471-24.573-14.021a11.916,11.916,0,1,0-2,23.742Z" transform="translate(-92.041 -82.765)"/>
      <path id="Tracé_437" data-name="Tracé 437" class="cls-3" d="M226.149,263.838c6.374,1.65,27.832-5.094,27.832-5.094s-15.479-16.323-21.847-17.973a11.915,11.915,0,1,0-5.979,23.068Z" transform="translate(-112.393 -109.48)"/>
      <path id="Tracé_438" data-name="Tracé 438" class="cls-3" d="M215.832,101.169c-2.661,6.015-21.279,18.636-21.279,18.636s-3.169-22.266-.508-28.286a11.915,11.915,0,1,1,21.789,9.651Z" transform="translate(-102.645 -46.767)"/>
      <path id="Tracé_439" data-name="Tracé 439" class="cls-3" d="M267.593,176.813c-4.341,4.945-25.883,11.42-25.883,11.42s3.635-22.194,7.982-27.138a11.911,11.911,0,1,1,17.9,15.719Z" transform="translate(-122.239 -75.967)"/>
      <path id="Tracé_440" data-name="Tracé 440" class="cls-3" d="M311.14,260.585c-3.444,5.608-23.581,15.629-23.581,15.629s-.167-22.493,3.276-28.1a11.925,11.925,0,0,1,20.328,12.472Z" transform="translate(-140.674 -110.299)"/>
    </g>
    <ellipse id="Ellipse_22" data-name="Ellipse 22" class="cls-1" cx="66.683" cy="8.681" rx="66.683" ry="8.681" transform="translate(161.822 469.382)"/>
    <g id="floor_flowers" data-name="floor flowers" transform="translate(87.382 438.782)">
      <ellipse id="Ellipse_23" data-name="Ellipse 23" class="cls-1" cx="20.257" cy="3.468" rx="20.257" ry="3.468" transform="translate(1.7 35.144)"/>
      <path id="Tracé_441" data-name="Tracé 441" class="cls-3" d="M226.055,792.94s3.282,4.3-1.519,10.762-8.759,11.958-7.175,16.006c0,0,7.241-12.048,13.154-12.215S232.548,800.187,226.055,792.94Z" transform="translate(-199.698 -792.94)"/>
      <path id="Tracé_442" data-name="Tracé 442" class="cls-5" d="M226.189,792.94a5.281,5.281,0,0,1,.67,1.351c5.752,6.756,8.819,13.064,3.288,13.219-5.148.149-11.33,9.357-12.807,11.683a5.532,5.532,0,0,0,.173.532s7.24-12.048,13.154-12.215S232.682,800.187,226.189,792.94Z" transform="translate(-199.832 -792.94)"/>
      <path id="Tracé_443" data-name="Tracé 443" class="cls-6" d="M241.839,801.441c0,1.513-.167,2.738-.377,2.738s-.383-1.2-.383-2.738.215-.8.424-.8S241.839,799.929,241.839,801.441Z" transform="translate(-209.378 -795.965)"/>
      <path id="Tracé_444" data-name="Tracé 444" class="cls-6" d="M244.114,804.421c-1.327.724-2.487,1.16-2.589.975s.9-.921,2.224-1.644.8-.2.9,0S245.441,803.7,244.114,804.421Z" transform="translate(-209.554 -797.138)"/>
      <path id="Tracé_445" data-name="Tracé 445" class="cls-3" d="M198.16,792.94s-3.282,4.3,1.519,10.762,8.759,11.958,7.175,16.006c0,0-7.241-12.048-13.154-12.215S191.679,800.187,198.16,792.94Z" transform="translate(-189.153 -792.94)"/>
      <path id="Tracé_446" data-name="Tracé 446" class="cls-5" d="M198.151,792.94a5.28,5.28,0,0,0-.67,1.351c-5.752,6.756-8.819,13.064-3.288,13.219,5.154.149,11.33,9.357,12.807,11.683a4.245,4.245,0,0,1-.173.532s-7.24-12.048-13.154-12.215S191.67,800.187,198.151,792.94Z" transform="translate(-189.145 -792.94)"/>
      <path id="Tracé_447" data-name="Tracé 447" class="cls-6" d="M192.91,801.441c0,1.513.167,2.738.377,2.738s.383-1.2.383-2.738-.215-.8-.425-.8S192.91,799.929,192.91,801.441Z" transform="translate(-190.008 -795.965)"/>
      <path id="Tracé_448" data-name="Tracé 448" class="cls-6" d="M188.866,804.421c1.327.724,2.481,1.16,2.583.975s-.9-.921-2.224-1.644-.8-.2-.9,0S187.539,803.7,188.866,804.421Z" transform="translate(-188.057 -797.138)"/>
      <path id="Tracé_449" data-name="Tracé 449" class="cls-7" d="M194.66,833.461s9.184-.287,11.958-2.254,14.122-4.329,14.81-1.166,13.8,15.719,3.432,15.8-24.089-1.614-26.851-3.294S194.66,833.461,194.66,833.461Z" transform="translate(-190.712 -807.237)"/>
      <path id="Tracé_450" data-name="Tracé 450" class="cls-8" d="M225.039,848.074c-10.367.084-24.089-1.614-26.851-3.294-2.1-1.285-2.942-5.883-3.223-8h-.3s.6,7.4,3.342,9.088,16.484,3.378,26.851,3.294c2.989,0,4.03-1.088,3.97-2.667C228.411,847.464,227.269,848.056,225.039,848.074Z" transform="translate(-190.712 -810.568)"/>
      <path id="Tracé_451" data-name="Tracé 451" class="cls-3" d="M692.441,836.188s-25.279-1.525-22.3,16.191a4.309,4.309,0,0,0,2.242,4.55s.048-1.309,2.595-.867a11.575,11.575,0,0,0,2.744.131,5.679,5.679,0,0,0,3.36-1.387h0s7.1-2.93,9.865-14.547c0,0,2.045-2.535,1.967-3.187l-4.269,1.794s1.459,3.079.311,5.638c0,0-.138-5.525-.957-5.381-.167,0-2.218,1.064-2.218,1.064s2.511,5.381.6,9.255c0,0,.717-6.577-1.4-8.867L682,842.328s2.93,5.536.945,10.057c0,0,.508-6.93-1.572-9.632l-2.72,2.122s2.75,5.459,1.07,9.208c0,0-.215-8.066-1.662-8.675,0,0-2.392,2.1-2.744,2.989,0,0,1.883,3.958.718,6.051,0,0-.718-5.381-1.309-5.381,0,0-2.392,3.587-2.619,5.979a13.019,13.019,0,0,1,2.045-6.344,7.138,7.138,0,0,0-3.629,1.883s.371-2.517,4.185-2.738c0,0,1.961-2.7,2.487-2.864,0,0-3.827-.323-6.146.706,0,0,2.039-2.392,6.846-1.3l2.685-2.188s-5.034-.694-7.175.072c0,0,2.463-2.1,7.9-.6l2.93-1.746a26.68,26.68,0,0,0-6.858-.6s2.7-1.459,7.713.12l2.093-.939s-3.151-.6-4.072-.711-.969-.353-.969-.353a10.918,10.918,0,0,1,5.913.658S692.519,836.469,692.441,836.188Z" transform="translate(-381.809 -810.317)"/>
      <ellipse id="Ellipse_24" data-name="Ellipse 24" class="cls-1" cx="17.889" cy="3.025" rx="17.889" ry="3.025" transform="translate(275.332 45.129)"/>
      <path id="Tracé_452" data-name="Tracé 452" class="cls-3" d="M624.991,837.777s-14.254-.861-12.556,9.13a2.439,2.439,0,0,0,1.268,2.565s0-.741,1.465-.49a6.987,6.987,0,0,0,1.543.078,3.272,3.272,0,0,0,1.9-.783h0s4.006-1.656,5.566-8.2c0,0,1.148-1.429,1.106-1.794l-2.392,1.022a4.334,4.334,0,0,1,.173,3.181s-.078-3.115-.538-3.043c-.1,0-1.25.6-1.25.6s1.411,2.989.347,5.22c0,0,.4-3.725-.789-5l-1.692.992s1.65,3.121.532,5.668c0,0,.287-3.91-.891-5.429l-1.531,1.2s1.549,3.079.6,5.19c0,0-.126-4.55-.939-4.891a9.355,9.355,0,0,0-1.549,1.668s1.064,2.236.407,3.414c0,0-.407-3.031-.735-3.043a10.045,10.045,0,0,0-1.477,3.384,7.264,7.264,0,0,1,1.148-3.587,4.017,4.017,0,0,0-2.045,1.058s.209-1.423,2.392-1.543a9.052,9.052,0,0,1,1.4-1.614,8.76,8.76,0,0,0-3.468.395s1.154-1.339,3.862-.729l1.513-1.238a12.461,12.461,0,0,0-4.042.042s1.387-1.2,4.454-.323l1.644-.981a14.778,14.778,0,0,0-3.862-.335s1.525-.819,4.347.066l1.2-.526s-1.794-.353-2.29-.407-.55-.2-.55-.2a6.171,6.171,0,0,1,3.336.371A14.079,14.079,0,0,0,624.991,837.777Z" transform="translate(-358.645 -810.962)"/>
      <ellipse id="Ellipse_25" data-name="Ellipse 25" class="cls-1" cx="10.086" cy="1.704" rx="10.086" ry="1.704" transform="translate(246.442 37.679)"/>
      <path id="Tracé_453" data-name="Tracé 453" class="cls-3" d="M668.583,802.365s-17.2-1.04-15.175,11.019a2.942,2.942,0,0,0,1.531,3.1s0-.891,1.764-.6a8.487,8.487,0,0,0,1.865.09,3.94,3.94,0,0,0,2.29-.945h0s4.837-2,6.714-9.907c0,0,1.393-1.722,1.339-2.164l-2.906,1.238a5.227,5.227,0,0,1,.215,3.838s-.1-3.761-.658-3.671c-.108,0-1.507.724-1.507.724s1.71,3.653.419,6.3c0,0,.49-4.5-.951-6.039l-2.045,1.2s2,3.767.646,6.846c0,0,.347-4.717-1.076-6.577l-1.853,1.441s1.877,3.713.735,6.266c0,0-.149-5.489-1.136-5.907a11.258,11.258,0,0,0-1.865,2.015s1.285,2.7.484,4.119c0,0-.484-3.653-.885-3.671a12,12,0,0,0-1.794,4.084,8.8,8.8,0,0,1,1.387-4.317,4.861,4.861,0,0,0-2.469,1.279s.251-1.716,2.87-1.865a11.24,11.24,0,0,1,1.692-1.949,10.645,10.645,0,0,0-4.185.484s1.387-1.62,4.664-.885l1.83-1.489s-3.432-.472-4.885.048c0,0,1.674-1.429,5.381-.389l1.991-1.2a19.614,19.614,0,0,0-4.664-.4s1.836-.992,5.25.078l1.423-.634s-2.146-.425-2.774-.49-.658-.239-.658-.239a7.432,7.432,0,0,1,4.024.448A17.537,17.537,0,0,0,668.583,802.365Z" transform="translate(-375.111 -796.721)"/>
      <ellipse id="Ellipse_26" data-name="Ellipse 26" class="cls-1" cx="12.179" cy="2.057" rx="12.179" ry="2.057" transform="translate(269.449 18.756)"/>
    </g>
    <g id="browser" transform="translate(81.758 57.115)">
      <path id="Tracé_454" data-name="Tracé 454" class="cls-9" d="M700.706,409.448V117H178.65V392.671A102.815,102.815,0,0,0,201.7,408.025q6.179,3.1,12.621,5.674H694.478Z" transform="translate(-178.65 -117)"/>
      <path id="Tracé_455" data-name="Tracé 455" class="cls-10" d="M700.443,415.2V131H180.73V398.916a103.578,103.578,0,0,0,22.929,14.947q6.155,2.989,12.573,5.513h478Z" transform="translate(-179.486 -122.629)"/>
      <rect id="Rectangle_191" data-name="Rectangle 191" class="cls-11" width="519.707" height="15.031" transform="translate(1.25 0.831)"/>
    </g>
    <g id="buttons" transform="translate(90.433 61.575)">
      <circle id="Ellipse_27" data-name="Ellipse 27" class="cls-10" cx="3.886" cy="3.886" r="3.886"/>
      <circle id="Ellipse_28" data-name="Ellipse 28" class="cls-10" cx="3.886" cy="3.886" r="3.886" transform="translate(10.463)"/>
      <circle id="Ellipse_29" data-name="Ellipse 29" class="cls-10" cx="3.886" cy="3.886" r="3.886" transform="translate(20.926)"/>
    </g>
    <g id="boxes" transform="translate(98.16 97.666)">
      <rect id="Rectangle_192" data-name="Rectangle 192" class="cls-3" width="93.57" height="58.797" transform="translate(129.558)"/>
      <rect id="Rectangle_193" data-name="Rectangle 193" class="cls-12" width="93.57" height="58.797"/>
      <rect id="Rectangle_194" data-name="Rectangle 194" class="cls-12" width="93.57" height="58.797" transform="translate(259.115)"/>
      <rect id="Rectangle_195" data-name="Rectangle 195" class="cls-12" width="93.57" height="58.797" transform="translate(0 84.058)"/>
      <rect id="Rectangle_196" data-name="Rectangle 196" class="cls-12" width="93.57" height="58.797" transform="translate(129.558 84.058)"/>
      <rect id="Rectangle_197" data-name="Rectangle 197" class="cls-12" width="93.57" height="58.797" transform="translate(259.115 84.058)"/>
      <rect id="Rectangle_198" data-name="Rectangle 198" class="cls-12" width="93.57" height="58.797" transform="translate(0 168.11)"/>
      <rect id="Rectangle_199" data-name="Rectangle 199" class="cls-12" width="93.57" height="58.797" transform="translate(129.558 168.11)"/>
      <rect id="Rectangle_200" data-name="Rectangle 200" class="cls-12" width="93.57" height="58.797" transform="translate(259.115 168.11)"/>
    </g>
    <g id="woman" transform="translate(188.854 98.22)">
      <path id="Tracé_456" data-name="Tracé 456" class="cls-13" d="M485.075,355.988s-16.807-30.72-13.973-35.718a68.077,68.077,0,0,0,4.921-12.233s6.206-4.245,6.206-5.979,4.915-5.746,7.5-7.492,1.291-9.991,0-10.989-3.342-4.5-3.342-4.5,1.794-4.992,0-6.493.263-2.989,0-4.5a60.335,60.335,0,0,1,0-6.989,11.267,11.267,0,0,0-6.613-4.783l-.191-.789-1.106-4.658s5.381-10.314-3.348-15.713a14.585,14.585,0,0,0-1.931-1.016,6.7,6.7,0,0,0-.048-.676,42.255,42.255,0,0,0-1.268-7.9c-.454-1.447-1.046-2.421-1.794-2.2a1.2,1.2,0,0,0-.49.281,5.454,5.454,0,0,0-.927,1.094h0a.246.246,0,0,1-.042.066,18.75,18.75,0,0,0-2.057,5.71,32.967,32.967,0,0,0-.6,3.587,19.725,19.725,0,0,0-1,2.218c-1.058,2.744-2.3,7.5-.042,11.013,1.913,2.989,4.49,7.1,6.362,10.086l.06.1.114.185-.2.126v.46l.173,2.517L472.9,282.56a9.243,9.243,0,0,0-1.327-.281,12.061,12.061,0,0,0-1.931-.126c-1.262-4.957-4.723-9.566-5.381-14.744a13.666,13.666,0,0,1-.1-1.56c.054-3.259.867-6.529.8-9.782,0-.6,0-1.2-.06-1.794h0a4.794,4.794,0,0,0-.048-.5,14.7,14.7,0,0,0-7.994-11.139c-1.5-.747-3.127-1.244-4.586-2.063-3.372-1.889-5.531-5.3-8.592-7.635-2.278-1.74-5.68-2.673-8.221-1.794a37.959,37.959,0,0,0-4,.825h0a36.084,36.084,0,0,0-9.154,3.8c-.389.233-.777.472-1.148.747a5.058,5.058,0,0,0-1.848,2.158,5.656,5.656,0,0,0-.287,2.326c0,.568,0,1.148.036,1.716-.167,9.566-10.475,16.968-11.324,26.307,0,.221-.036.442-.048.664v1.022h0v.747c.149,4.1,2.278,7.91,2.667,11.988.036.365.054.723.06,1.088a18.081,18.081,0,0,1-1.058,5.489,16.065,16.065,0,0,0-3.713,1.507c-3.133,2.015-8.789,5.495-10.852,12.149a17.8,17.8,0,0,0-.783,5.333,111.359,111.359,0,0,1-1.746,19.043,35.585,35.585,0,0,1-1.1,4.682,1.1,1.1,0,0,0-.036.46l-1.244,16.143-.221,2.84-.311,4.042s.09.245.221.658a19.009,19.009,0,0,1,.49,1.865,10.032,10.032,0,0,1,.161,4.185,2.882,2.882,0,0,1-.873,1.537.645.645,0,0,0-.1.114,12.416,12.416,0,0,0-.945,4.113c-.108.837-.209,1.794-.311,2.786-.6,6.368-.969,15.9-1.2,23.778-.215,7.773-.293,13.913-.293,13.913a15.869,15.869,0,0,0,3.211,1.59c-.084.209-.173.425-.257.652a31.409,31.409,0,0,0-1.949,8.215c-.5,5.877,1.142,12.406,9.339,15.766a13.191,13.191,0,0,0,1.608.55,5.1,5.1,0,0,0,4.09-.251c0,.353.042.694.06,1.034.084,1.459.155,2.792.191,3.91.257,7,1.991,19.228,1.991,19.228s.6,5,.078,6.493,0,7.492,0,7.492,1.794,2.989,0,4.5-2.326,8.968-1.794,9.991a.336.336,0,0,1,.03.114c.395,2.481-1.836,39.347-1.836,39.347s-2.111,5.644-3.791,11.5c-1.638,5.7-2.87,11.611-1.351,12.717a12.69,12.69,0,0,0,4.729,1.279c0,.245-.036.49-.06.741-.215,2.637-.556,5.477-1.046,6.194-.711,1.016-1.459,8.9-1.824,13.154l-.036.472a44.06,44.06,0,0,0-1.925,5.584s-5.722,14.349-3.785,18.074a3.055,3.055,0,0,0,.712.879h0a1.614,1.614,0,0,0,.185.167c2.756,2.206,9.662,2.667,12.167,2.768l-.1,3.552v.132H408.4v-.09c0-.448.072-2.505.179-5.255,0-.49.036-1,.06-1.531,0-.413.042-.831.06-1.262a22.121,22.121,0,0,0,1.417-7.982,35.024,35.024,0,0,1,1.256-9.255,25.711,25.711,0,0,1,1.656-4.514s1.016-5.381-.4-9.19a6.637,6.637,0,0,0-1.2-2.069c0-.126,0-.251,0-.383v-.813a34.493,34.493,0,0,1,.765-7.665.845.845,0,0,1,0-.12c.048-.209.1-.407.155-.6l.036-.132,1.058.036c3.247.09,5.632.09,5.632.09s2.589-13.237,2.332-18.977v-.777a73.917,73.917,0,0,1,1.566-13.459l2.087-20.239s-1.034-3.5,0-5.979c.64-1.543,1.961-4.406,2.882-6.38.43-.915.771-1.632.915-1.943l.084-.167a3.868,3.868,0,0,1-.921-.46h0c-.843-.562-1.6-1.662.927-3.282,3.88-2.5,2.589-8.741,2.589-8.741a4.488,4.488,0,0,1,.2-4.245c1.345-2,0-9.489,0-9.489A31.371,31.371,0,0,0,434.4,453.9c.963-2.989,3.4-17.608,4.544-24.657.377-2.314.6-3.809.6-3.809l.036.365.036.395h0l.323,3.33.042.442.6,6.3s1.2,16.55.448,23.037v.12a7.665,7.665,0,0,1-.436,1.967c-1.375,3.109-1.124,15.461-1.052,18.194v.55a11,11,0,0,0-.729,4.221h0a2.709,2.709,0,0,0,.472,1.256,3.181,3.181,0,0,1,.46,1.943v.06a7.066,7.066,0,0,1-.072.861,16.418,16.418,0,0,1-.909,3.384s-1.387,3.647-.861,5.554h0a1.757,1.757,0,0,0,.341.676,1.6,1.6,0,0,1,.2.717.258.258,0,0,0,0,.066c.484,4.024-.765,21.787-1.507,31.509-.3,3.838-.514,6.421-.514,6.421l-2.051,21.225.2.143c.233.167.67.454,1.256.8v.048l-.09.64c-.293,2.045-.688,4.424-1.118,6.242-.036.138-.066.269-.1.395a5.721,5.721,0,0,0-2.194.879c-4.353,7.731-2.427,13.859,0,15.641.688.5,1.154,1.907,1.465,3.653l.6,7.707v.885a2.3,2.3,0,0,0,.114.706l.185,2.338.251,3.253h1.985v-3.94h.108c3.133.108,8.185.239,10.385.066h.06a3.875,3.875,0,0,0,.6-.066,1.5,1.5,0,0,0,.347-.1c1.166-.562,4.072-8.8,1.453-10.672s-3.2-7.175-3.2-7.175c-.227-.694-.454-1.351-.688-1.979v-.407a32.885,32.885,0,0,1,.311-6.852,52.12,52.12,0,0,0,.682-8.185v-.759a10.2,10.2,0,0,0,1.333-.436l.1-.042a9.394,9.394,0,0,0,2.23-1.321l7.318-32.43.771-3.773,4.395-21.458s-1.549-7.492,0-8.735c.568-.454.723-2.392.688-4.634-.06-3.922-.688-8.855-.688-8.855s2.069-3.247,3.109-5.244,0-7.24,0-7.24l2.039-12.006s2.332-14.236,8.018-26.224c4.185-8.819,1.519-32.633-1.2-45.308-.072-.329-.143-.652-.215-.963v-.048c1.28-.634,2.846-1.4,4.52-2.2l.634-.3c2.123-1,4.371-2.027,6.385-2.882l.132-.054a44.6,44.6,0,0,1,4.442-1.662,7.455,7.455,0,0,1,1.363-.281C495.939,374.965,485.075,355.988,485.075,355.988Zm-80.9,40.627h1.076c-.126.233-.245.472-.365.711-.072.143-.143.281-.209.425-.395.819-.759,1.656-1.058,2.475.12-.885.269-1.848.436-2.876C404.1,397.123,404.138,396.854,404.174,396.615ZM401.268,412.2a.436.436,0,0,0,0-.084l-.09-.281c-.066-.191-.126-.383-.185-.6q.556-.167,1.13-.377h.078v.2c-.03.281-.066.562-.1.837h0a.6.6,0,0,1,0,.108,5.812,5.812,0,0,1-.078.658c-.054.43-.108.849-.155,1.25-.114-.377-.227-.747-.347-1.112a2.833,2.833,0,0,1-.251-.6Z" transform="translate(-386.5 -223.338)"/>
      <path id="Tracé_457" data-name="Tracé 457" class="cls-14" d="M530.147,260.97l-6.457,2.284-2.344-3.886c-1.794-2.989-4.281-7.079-6.116-10.051-3.241-5.226,1-13.19,1-13.19s.765-7.994,3.492-10.457,3.486,10.457,3.486,10.457c10.947,4.974,5.082,16.675,5.082,16.675l1.064,4.64Z" transform="translate(-437.772 -224.15)"/>
      <path id="Tracé_458" data-name="Tracé 458" class="cls-5" d="M535.081,282.4l-6.457,2.284L526.28,280.8v-.341a11.245,11.245,0,0,1,8.018-1.584Z" transform="translate(-442.706 -245.583)"/>
      <path id="Tracé_459" data-name="Tracé 459" class="cls-15" d="M523.56,309.091l3.235-2.738-1.62-24.645s8.37-5.728,14.565,3.235a62.9,62.9,0,0,0,0,6.971c.251,1.495-1.74,2.989,0,4.478s0,6.475,0,6.475,1.967,3.486,3.211,4.478,2.493,9.214,0,10.953-7.169,5.728-7.169,7.468-5.979,5.979-5.979,5.979l-5.25-6.942Z" transform="translate(-441.613 -246.083)"/>
      <path id="Tracé_460" data-name="Tracé 460" class="cls-14" d="M400.46,557.584c-12.066-5.118-9.387-17.62-7.115-23.916a32.567,32.567,0,0,1,1.6-3.731l6.768-4.108s1.381,3.522,2.858,8.245C407.993,545.064,411.933,562.457,400.46,557.584Z" transform="translate(-388.466 -344.972)"/>
      <path id="Tracé_461" data-name="Tracé 461" class="cls-14" d="M423.676,767.555a20.328,20.328,0,0,0-1.794,5.034,36.358,36.358,0,0,0-.777,8.568c.048,1.991.215,3.294.215,3.294L407.88,793.7s.078-1.082.209-2.673c.347-4.233,1.07-12.089,1.752-13.106.472-.705.8-3.539,1.01-6.17s.293-4.939.293-4.939S427.318,760.745,423.676,767.555Z" transform="translate(-395.097 -440.871)"/>
      <path id="Tracé_462" data-name="Tracé 462" class="cls-14" d="M478.533,780s0,2.571-.1,5.56a56.941,56.941,0,0,1-.652,8.161,33.6,33.6,0,0,0-.3,6.828c.09,2.99.3,5.68.3,5.68s-13.722-12.974-12.323-14a6.357,6.357,0,0,0,1.088-2.852c.419-1.794.8-4.185,1.076-6.218.335-2.422.544-4.371.544-4.371Z" transform="translate(-418.211 -446.688)"/>
      <path id="Tracé_463" data-name="Tracé 463" class="cls-5" d="M425.695,767.555a20.328,20.328,0,0,0-1.794,5.034,109.858,109.858,0,0,1-11-.843c.2-2.571.293-4.939.293-4.939S429.336,760.745,425.695,767.555Z" transform="translate(-397.116 -440.871)"/>
      <path id="Tracé_464" data-name="Tracé 464" class="cls-5" d="M480.056,780.012s0,2.571-.1,5.56c-4.281,1.094-8.681-1.094-10.81-2.392.335-2.421.544-4.371.544-4.371Z" transform="translate(-419.734 -446.696)"/>
      <path id="Tracé_465" data-name="Tracé 465" class="cls-16" d="M482.067,532.2c-5.477,11.958-7.719,26.14-7.719,26.14L472.357,570.3s1,5.226,0,7.217-2.989,5.232-2.989,5.232,1.495,12.2,0,13.441,0,8.711,0,8.711l-4.98,25.112-6.971,32.358c-6.72,5.483-15.665-1.489-15.665-1.489l1.973-21.159s2.99-37.069,1.746-38.588.5-6.224.5-6.224,1.746-4.484.5-6.224.245-5.477.245-5.477-.5-15.187,1-18.672,0-25.046,0-25.046l-.6-6.714-.347-3.719-.03-.365s-.227,1.489-.6,3.8c-1.1,7.025-3.444,21.584-4.371,24.579a32.006,32.006,0,0,1-2.553,6.224s1.291,7.468,0,9.459a4.631,4.631,0,0,0-.2,4.233s1.244,6.224-2.493,8.711,0,3.737,0,3.737-2.738,5.979-3.731,8.46,0,5.979,0,5.979L430.8,624.033s-1.746,8.46-1.495,14.188-2.242,18.917-2.242,18.917-19.169,0-22.122-2.242,4.933-24.113,4.933-24.113,2.242-38.337,1.74-39.329,0-8.466,1.746-9.955,0-4.484,0-4.484-.5-5.979,0-7.468-.078-6.475-.078-6.475-1.668-12.2-1.913-19.168-1.495-22.648-1.495-22.648,1.3-9.7,1.5-14.314a16.257,16.257,0,0,1,1.794-5.818,51.9,51.9,0,0,1,3.707-6.505s58.982-17.435,61.458-15.7c.658.46,1.614,3.587,2.559,8.113C483.526,499.677,486.1,523.414,482.067,532.2Z" transform="translate(-393.651 -326.059)"/>
      <circle id="Ellipse_30" data-name="Ellipse 30" class="cls-17" cx="17.177" cy="17.177" r="17.177" transform="translate(34.899 19.642)"/>
      <path id="Tracé_466" data-name="Tracé 466" class="cls-5" d="M486.869,487.044c-1.979,1.016-3.306,1.716-3.306,1.716s-27.88,13.2-35.808,12.448c-6.134-.6-21.793-.257-28.615-.09a51.908,51.908,0,0,1,3.707-6.505s58.988-17.429,61.464-15.695C484.968,479.391,485.925,482.506,486.869,487.044Z" transform="translate(-399.625 -326.059)"/>
      <path id="Tracé_467" data-name="Tracé 467" class="cls-15" d="M430.987,327.848s-15.91,2.511-19.665,4.974-11.193,7.223-11.193,17.429-1.74,20.663-2.738,23.647,15.683,27.132,15.683,27.132l-5.979,36.6s23.916-.747,31.88,0,35.832-12.448,35.832-12.448,16.43-8.711,19.916-8.968-6.971-19.168-6.971-19.168S471.566,366.43,474.3,361.45a68.793,68.793,0,0,0,4.747-12.2l-2.99-25.387a9.766,9.766,0,0,0-8.215,1.244c-3.737,2.738-16.43,1.244-16.43,1.244Z" transform="translate(-390.862 -263.597)"/>
      <path id="Tracé_468" data-name="Tracé 468" class="cls-5" d="M401.238,396.622,395,398.362l-1.728,23.425s2.242,6.224,0,8.215-2.738,44.561-2.738,44.561,7.223,5.226,15.683,1.244c0,0-1.244-4.729,2.493-21.907s3.731-25.889,3.731-25.889,0-21.411,1.746-24.9,0-12.2,0-12.2-3.486-4.729-3.241-6.469S401.238,396.622,401.238,396.622Z" transform="translate(-388.121 -288.061)"/>
      <path id="Tracé_469" data-name="Tracé 469" class="cls-5" d="M405.882,534.1a15.9,15.9,0,0,1-11.222-.407,32.563,32.563,0,0,1,1.6-3.731l6.768-4.107S404.43,529.382,405.882,534.1Z" transform="translate(-389.781 -344.984)"/>
      <path id="Tracé_470" data-name="Tracé 470" class="cls-15" d="M400.612,396.606l-6.224,1.74-1.74,23.425s2.242,6.224,0,8.215-2.738,44.561-2.738,44.561,7.229,5.22,15.683,1.22c0,0-1.244-4.729,2.487-21.907s3.737-25.889,3.737-25.889,0-21.411,1.74-24.9,0-12.2,0-12.2-3.486-4.729-3.235-6.469S400.612,396.606,400.612,396.606Z" transform="translate(-387.871 -288.045)"/>
      <path id="Tracé_471" data-name="Tracé 471" class="cls-5" d="M505.859,411.15s-3.235,27.88-12.7,33.111C493.16,444.261,514.319,438.288,505.859,411.15Z" transform="translate(-429.389 -298.858)"/>
      <path id="Tracé_472" data-name="Tracé 472" class="cls-5" d="M434.88,415.32s11.695,5.722,8.968,9.7S434.88,415.32,434.88,415.32Z" transform="translate(-405.954 -300.535)"/>
      <path id="Tracé_473" data-name="Tracé 473" class="cls-5" d="M434.88,434.47s7.468,7.719,5.979,10.457S434.88,434.47,434.88,434.47Z" transform="translate(-405.954 -308.235)"/>
      <path id="Tracé_474" data-name="Tracé 474" class="cls-5" d="M535.63,327.47s2.93,4.974,3.211,8.215S535.63,327.47,535.63,327.47Z" transform="translate(-446.466 -265.21)"/>
      <path id="Tracé_475" data-name="Tracé 475" class="cls-5" d="M535.63,315.857s1.471-1.25,5.226,0S535.63,315.857,535.63,315.857Z" transform="translate(-446.466 -260.317)"/>
      <path id="Tracé_476" data-name="Tracé 476" class="cls-5" d="M497,556a34.617,34.617,0,0,1-18.206-2.332l-3.139,8.036-.347-3.719c.514-3.121,1.513-6.463,3.486-7.306C478.8,550.68,485.707,556.187,497,556Z" transform="translate(-422.211 -354.964)"/>
      <path id="Tracé_477" data-name="Tracé 477" class="cls-5" d="M426.18,577.07s15.312,3.175,19.6,2.613Z" transform="translate(-402.456 -365.576)"/>
      <path id="Tracé_478" data-name="Tracé 478" class="cls-5" d="M428.84,583.763s6.535-.281,9.8,1.028Z" transform="translate(-403.525 -368.257)"/>
      <path id="Tracé_479" data-name="Tracé 479" class="cls-5" d="M430.09,588.31a58.591,58.591,0,0,0,9.052,1.2Z" transform="translate(-404.028 -370.095)"/>
      <path id="Tracé_480" data-name="Tracé 480" class="cls-5" d="M429.46,644.4c.281-.185,13.07-3.175,14.66-1.028Z" transform="translate(-403.775 -391.925)"/>
      <path id="Tracé_481" data-name="Tracé 481" class="cls-5" d="M429.46,651.779s11.109-1.309,11.39,0S429.46,651.779,429.46,651.779Z" transform="translate(-403.775 -395.382)"/>
      <path id="Tracé_482" data-name="Tracé 482" class="cls-5" d="M429.46,656.79s11.856-2.451,13.255-1.853S429.46,656.79,429.46,656.79Z" transform="translate(-403.775 -396.848)"/>
      <path id="Tracé_483" data-name="Tracé 483" class="cls-5" d="M421.361,794.646l-13.441,9.243s.078-1.082.209-2.673a36.234,36.234,0,0,1,6.882-11.234c3.031-.789,4.945-.06,6.134,1.369C421.193,793.336,421.361,794.646,421.361,794.646Z" transform="translate(-395.113 -451.059)"/>
      <path id="Tracé_484" data-name="Tracé 484" class="cls-16" d="M418.823,803.2a33.357,33.357,0,0,0-2.8,13.752,21.326,21.326,0,0,1-2.846,11.067,10.9,10.9,0,0,1-.945,1.351s-9.339-.078-12.61-2.786a3.234,3.234,0,0,1-.879-1.076c-1.871-3.731,3.641-18.015,3.641-18.015,2.894-11.013,8.771-16.9,8.771-16.9C421.621,787.886,418.823,803.2,418.823,803.2Z" transform="translate(-391.266 -451.306)"/>
      <path id="Tracé_485" data-name="Tracé 485" class="cls-5" d="M414.024,839.61a10.908,10.908,0,0,1-.945,1.351s-9.339-.078-12.61-2.786c1.608-5.321,6.738-21.423,9.142-18.684C411.872,822.062,413.444,834.432,414.024,839.61Z" transform="translate(-392.118 -462.929)"/>
      <path id="Tracé_486" data-name="Tracé 486" class="cls-16" d="M420.562,820.485,419.91,844.6h3.133s.508-21.16,1.907-24.119S420.562,820.485,420.562,820.485Z" transform="translate(-399.934 -462.925)"/>
      <path id="Tracé_487" data-name="Tracé 487" class="cls-5" d="M477.785,813.3s-13.722-12.974-12.323-14a6.357,6.357,0,0,0,1.088-2.852c2.637-.46,7.175.64,10.93,11.175C477.57,810.607,477.785,813.3,477.785,813.3Z" transform="translate(-418.211 -453.752)"/>
      <path id="Tracé_488" data-name="Tracé 488" class="cls-16" d="M477.475,828.022a1.393,1.393,0,0,1-.329.1,97.45,97.45,0,0,1-10.894,0,2.356,2.356,0,0,1-2.278-2.35c0-.9,0-1.991-.072-3.157-.155-3.683-.6-8.066-1.919-9.052-2.338-1.794-4.185-7.88,0-15.587,0,0,8.024-6.128,13.811,12.293,0,0,.562,5.255,3.079,7.121S478.6,827.49,477.475,828.022Z" transform="translate(-415.85 -454.008)"/>
      <path id="Tracé_489" data-name="Tracé 489" class="cls-5" d="M480.093,838.552a97.435,97.435,0,0,1-10.894,0,2.356,2.356,0,0,1-2.278-2.35c0-.9,0-1.991-.072-3.157,1.01-4.46,2.463-9.052,4.335-10.1C471.2,822.941,476.859,822.3,480.093,838.552Z" transform="translate(-418.809 -464.442)"/>
      <path id="Tracé_490" data-name="Tracé 490" class="cls-16" d="M423.46,799.43l1.507,20.071h1.913V797.72Z" transform="translate(-376.31 -441.469)"/>
      <path id="Tracé_491" data-name="Tracé 491" class="cls-5" d="M450.268,239.109a34.331,34.331,0,0,0-15.318,4.921,6.366,6.366,0,0,0-2.888,2.9,9.612,9.612,0,0,0-.233,3.587c.161,10.3-11.318,18.086-10.959,28.376.143,4.084,2.194,7.886,2.571,11.958.628,6.792-3.39,13.04-7.24,18.666a15.462,15.462,0,0,0,10.912-3.617,82.743,82.743,0,0,1,1.525,41.7h5.507a4.186,4.186,0,0,1,1.608.2,4.042,4.042,0,0,1,1.273.951c5.148,5.124,8.6,12.7,6.631,19.695l11.719-4.395a34.811,34.811,0,0,0,8.09-3.856,11.682,11.682,0,0,0,5-7.2c.317-1.794.215-3.934,1.692-4.975a9.209,9.209,0,0,1,2.308-.855c3.217-1.136,4.64-4.855,5.3-8.2a47.235,47.235,0,0,0,.747-12.478c-.52-7-2.589-14.1-.885-20.926.963-3.832,3.1-7.4,3.276-11.36.281-6.523-4.819-12.143-5.578-18.63-.532-4.52,1.1-9.094.568-13.614a14.624,14.624,0,0,0-7.695-11.1c-1.441-.741-2.989-1.238-4.412-2.057-3.247-1.883-5.321-5.273-8.269-7.605s-7.856-3.211-10.075-.179Z" transform="translate(-398.443 -229.661)"/>
      <path id="Tracé_492" data-name="Tracé 492" class="cls-18" d="M450.268,237.851a34.331,34.331,0,0,0-15.318,4.921,6.366,6.366,0,0,0-2.888,2.9,9.612,9.612,0,0,0-.233,3.587c.161,10.3-11.318,18.086-10.959,28.382.143,4.078,2.194,7.88,2.571,11.958.628,6.792-3.39,13.04-7.24,18.672a15.545,15.545,0,0,0,10.912-3.617,82.712,82.712,0,0,1,1.525,41.691h5.507a4.186,4.186,0,0,1,1.608.2,3.934,3.934,0,0,1,1.273.945c5.148,5.13,8.6,12.7,6.631,19.695l11.719-4.395a34.813,34.813,0,0,0,8.09-3.856,11.682,11.682,0,0,0,5-7.2c.317-1.794.215-3.934,1.692-4.974a9.208,9.208,0,0,1,2.308-.855c3.217-1.136,4.64-4.855,5.3-8.2a47.237,47.237,0,0,0,.765-12.49c-.52-7-2.589-14.1-.885-20.926.963-3.832,3.1-7.4,3.276-11.36.281-6.523-4.819-12.143-5.578-18.63-.532-4.52,1.1-9.088.568-13.614a14.636,14.636,0,0,0-7.695-11.1c-1.441-.741-2.989-1.238-4.412-2.051-3.247-1.889-5.321-5.279-8.269-7.611s-7.856-3.211-10.074-.179Z" transform="translate(-398.443 -229.151)"/>
      <g id="Groupe_44" data-name="Groupe 44" class="cls-19" transform="translate(17.757 17.621)">
        <path id="Tracé_493" data-name="Tracé 493" d="M442.3,252.81a6.648,6.648,0,0,0-.036.694C442.278,253.276,442.29,253.043,442.3,252.81Z" transform="translate(-426.679 -252.81)"/>
        <path id="Tracé_494" data-name="Tracé 494" d="M514.966,286.447c.215-3.169.921-6.35.658-9.507C515.426,280.109,514.721,283.29,514.966,286.447Z" transform="translate(-455.894 -262.513)"/>
        <path id="Tracé_495" data-name="Tracé 495" d="M426.576,311.876C426.23,308.169,424.5,304.7,424.1,301a13.633,13.633,0,0,0-.09,2.045c.144,4.036,2.146,7.809,2.553,11.826A16.139,16.139,0,0,0,426.576,311.876Z" transform="translate(-419.336 -272.187)"/>
        <path id="Tracé_496" data-name="Tracé 496" d="M518.561,336.86a25.639,25.639,0,0,0-.6,7.426,22.516,22.516,0,0,1,.6-4.311c.963-3.833,3.1-7.4,3.276-11.36a12.32,12.32,0,0,0-.1-2.1C521.275,330.068,519.416,333.38,518.561,336.86Z" transform="translate(-457.098 -282.445)"/>
        <path id="Tracé_497" data-name="Tracé 497" d="M427.112,344.36a15.545,15.545,0,0,1-8.825,3.587c-.682,1.064-1.387,2.1-2.087,3.133a15.545,15.545,0,0,0,10.912-3.617,82.506,82.506,0,0,1,3.48,22.391A82.694,82.694,0,0,0,427.112,344.36Z" transform="translate(-416.2 -289.623)"/>
        <path id="Tracé_498" data-name="Tracé 498" d="M496.254,394.608c-.658,3.348-2.081,7.067-5.3,8.2a8.968,8.968,0,0,0-2.308.861c-1.477,1.04-1.375,3.193-1.692,4.974a11.533,11.533,0,0,1-5,7.175,35.946,35.946,0,0,1-8.09,3.862l-11.181,4.185a15.43,15.43,0,0,1-.538,3.318l11.719-4.395a34.81,34.81,0,0,0,8.09-3.856,11.682,11.682,0,0,0,5-7.2c.317-1.794.215-3.934,1.692-4.974a9.208,9.208,0,0,1,2.308-.855c3.217-1.136,4.64-4.855,5.3-8.2a46.887,46.887,0,0,0,.843-10.583A46.818,46.818,0,0,1,496.254,394.608Z" transform="translate(-434.677 -306.813)"/>
        <path id="Tracé_499" data-name="Tracé 499" d="M445.435,415.218a3.953,3.953,0,0,0-1.273-.951,4.275,4.275,0,0,0-1.608-.2h-4.885c-.191,1.04-.395,2.081-.6,3.115h5.507a4.186,4.186,0,0,1,1.608.2,3.934,3.934,0,0,1,1.274.945c3.767,3.755,6.619,8.813,7.109,14C453.171,426.123,449.955,419.738,445.435,415.218Z" transform="translate(-424.592 -317.648)"/>
      </g>
      <path id="Tracé_500" data-name="Tracé 500" class="cls-5" d="M405.37,449.522s4.448-1.865,5.441,0S405.37,449.522,405.37,449.522Z" transform="translate(-394.088 -313.954)"/>
      <path id="Tracé_501" data-name="Tracé 501" class="cls-5" d="M408,454.872s4.448-1.865,5.447,0S408,454.872,408,454.872Z" transform="translate(-395.145 -316.106)"/>
    </g>
    <g id="leaves" transform="translate(395.611 5.134)">
      <path id="Tracé_502" data-name="Tracé 502" class="cls-1" d="M855.467,51.66s-22.75-1.369-20.065,14.571a3.888,3.888,0,0,0,2.021,4.1s.042-1.2,2.332-.783a10.469,10.469,0,0,0,2.469.12,5.124,5.124,0,0,0,3.013-1.25h0s6.391-2.637,8.879-13.088c0,0,1.842-2.284,1.794-2.87L852.071,54.1s1.309,2.768.275,5.07c0,0-.12-4.974-.861-4.855-.149,0-1.991.957-1.991.957s2.254,4.825.55,8.335c0,0,.646-5.943-1.256-7.982l-2.714,1.608s2.637,4.98.849,9.046c0,0,.46-6.236-1.417-8.663l-2.451,1.907s2.481,4.885.987,8.257c0,0-.2-7.264-1.5-7.808a14.787,14.787,0,0,0-2.463,2.667s1.692,3.587.64,5.441c0,0-.646-4.831-1.2-4.855,0,0-2.134,3.2-2.356,5.381A11.665,11.665,0,0,1,839,62.895a6.38,6.38,0,0,0-3.265,1.7s.329-2.266,3.791-2.469a14.914,14.914,0,0,1,2.236-2.577,14.019,14.019,0,0,0-5.531.64s1.835-2.14,6.164-1.2l2.392-1.973s-4.532-.6-6.457.066c0,0,2.212-1.889,7.109-.514L848.071,55a23.62,23.62,0,0,0-6.164-.532s2.427-1.309,6.936.108l1.883-.843s-2.834-.556-3.659-.646-.873-.317-.873-.317a9.782,9.782,0,0,1,5.315.6S855.533,51.911,855.467,51.66Z" transform="translate(-789.85 -38.734)"/>
      <path id="Tracé_503" data-name="Tracé 503" class="cls-1" d="M807.3,30.06s-19.133,12.382-7.527,23.629a3.891,3.891,0,0,0,4.054,2.1s-.67-.981,1.417-2.015a10.379,10.379,0,0,0,2.063-1.369A5.148,5.148,0,0,0,809,49.617h0s3.587-5.919-.6-15.808c0,0,.132-2.93-.275-3.36l-2.116,3.587s2.7,1.453,3.229,3.916c0,0-3.043-3.928-3.587-3.4-.108.108-1.04,1.955-1.04,1.955s4.682,2.547,5.381,6.38c0,0-2.989-5.172-5.746-5.68l-1.244,2.87s5.082,2.451,6.051,6.786c0,0-3.33-5.3-6.278-6.14l-.837,2.989s4.9,2.487,5.686,6.1c0,0-4.46-5.728-5.835-5.381a15.152,15.152,0,0,0-.407,3.587s3.48,1.865,3.743,4.006c0,0-3.384-3.51-3.821-3.217,0,0,.179,3.844,1.3,5.746a11.677,11.677,0,0,1-1.9-5.686,6.4,6.4,0,0,0-1.626,3.3s-1.076-2.021,1.6-4.233a16.368,16.368,0,0,1,.269-3.4,13.839,13.839,0,0,0-4.078,3.791s.215-2.81,4.275-4.592l.777-3.019s-4.018,2.188-5.16,3.88c0,0,.664-2.834,5.417-4.628l1.2-2.828a24.329,24.329,0,0,0-5.285,3.229s1.2-2.5,5.656-4.024l1.016-1.794s-2.613,1.232-3.33,1.65-.891.263-.891.263a9.8,9.8,0,0,1,4.634-2.673S807.508,30.227,807.3,30.06Z" transform="translate(-774.111 -30.06)"/>
      <path id="Tracé_504" data-name="Tracé 504" class="cls-1" d="M763.439,54.154S752,73.884,767.445,78.626a3.855,3.855,0,0,0,4.568,0s-1.034-.562.353-2.433a10.467,10.467,0,0,0,1.2-2.152,5.166,5.166,0,0,0,.245-3.259h0s.508-6.9-7.713-13.817c0,0-1.2-2.667-1.794-2.864l-.257,4.185s3.061.072,4.658,2.027c0,0-4.5-2.123-4.723-1.411-.048.143-.042,2.212-.042,2.212s5.375.161,7.767,3.259c0,0-5.022-3.247-7.695-2.457l.191,3.121s5.638-.12,8.466,3.306c0,0-5.381-3.211-8.371-2.625l.6,3.043s5.5,0,7.832,2.858c0,0-6.577-3.085-7.647-2.17a14.776,14.776,0,0,0,1.273,3.4s3.946.084,5.154,1.871c0,0-4.61-1.6-4.867-1.13,0,0,1.907,3.342,3.767,4.526a11.677,11.677,0,0,1-4.275-4.185,6.4,6.4,0,0,0,.048,3.677s-1.877-1.309-.5-4.5a15.023,15.023,0,0,1-1.3-3.151,14.207,14.207,0,0,0-1.913,5.226s-1.088-2.6,1.722-6.027l-.676-3.049s-2.589,3.773-2.84,5.8c0,0-.694-2.828,2.732-6.577l-.227-3.055a23.869,23.869,0,0,0-3.241,5.273s-.084-2.762,3.211-6.152l.09-2.063s-1.794,2.278-2.218,2.989-.676.61-.676.61a9.841,9.841,0,0,1,2.918-4.49S763.69,54.208,763.439,54.154Z" transform="translate(-759.363 -39.727)"/>
    </g>
    <path id="Tracé_505" data-name="Tracé 505" class="cls-3" d="M913.606,385.218a8.556,8.556,0,1,0,8.556,8.556A8.556,8.556,0,0,0,913.606,385.218ZM888.59,318.08v8.556h8.556l15.4,31.2-6.439,10.481a8.226,8.226,0,0,0-1.07,4.066c0,5.728,3.916,8.556,9.226,8.556h50.026V372.71H915.31a1.01,1.01,0,0,1-1.07-1.07,5.38,5.38,0,0,1,.455-1.064l4.275-6.75h31.874a8.37,8.37,0,0,0,7.486-4.49l15.408-26.493a4.969,4.969,0,0,0,.431-2.14,4.114,4.114,0,0,0-4.281-4.066H906.563L902.5,318.08Zm67.137,67.138a8.556,8.556,0,1,0,8.562,8.558A8.556,8.556,0,0,0,955.728,385.218Z" transform="translate(-429.113 -150.049)"/>
    <path id="Tracé_506" data-name="Tracé 506" class="cls-10" d="M927.4,331.385h-7.175V324.21h-5.381v7.175H907.67v5.381h7.175v7.175h5.381v-7.175H927.4Z" transform="translate(-411.712 -139.216)"/>
  </g>
</svg>
