<svg xmlns="http://www.w3.org/2000/svg" xmlns:xlink="http://www.w3.org/1999/xlink" viewBox="0 0 560.131 377.406">
  <defs>
    <style>
      .cls-1, .cls-11, .cls-12 {
        opacity: 0.5;
      }

      .cls-1 {
        fill: url(#linear-gradient);
      }

      .cls-11, .cls-2, .cls-3 {
        fill: #58b1f9;
      }

      .cls-3, .cls-4 {
        opacity: 0.6;
      }

      .cls-19, .cls-4 {
        fill: none;
        stroke-miterlimit: 10;
      }

      .cls-4 {
        stroke: #535461;
      }

      .cls-5 {
        fill: url(#linear-gradient-2);
      }

      .cls-6 {
        fill: #fff;
      }

      .cls-7 {
        fill: #eee;
      }

      .cls-8 {
        fill: #ff5252;
      }

      .cls-9 {
        fill: #ff0;
      }

      .cls-10 {
        fill: #69f0ae;
      }

      .cls-12 {
        fill: url(#linear-gradient-3);
      }

      .cls-13 {
        fill: #fdb797;
      }

      .cls-14 {
        opacity: 0.05;
      }

      .cls-15 {
        fill: #f9ce43;
      }

      .cls-16 {
        fill: #0d134d;
      }

      .cls-17, .cls-19, .cls-26 {
        opacity: 0.1;
      }

      .cls-18 {
        fill: #e23553;
      }

      .cls-19 {
        stroke: #000;
      }

      .cls-20 {
        fill: #f4f4f4;
      }

      .cls-21 {
        fill: url(#linear-gradient-4);
      }

      .cls-22 {
        fill: #72351c;
      }

      .cls-23 {
        fill: #333;
      }

      .cls-24 {
        fill: #4d8af0;
      }

      .cls-25 {
        fill: #f55f44;
      }

      .cls-27 {
        fill: #f0e4e4;
      }
    </style>
    <linearGradient id="linear-gradient" x1="0.5" y1="1" x2="0.5" gradientUnits="objectBoundingBox">
      <stop offset="0" stop-color="gray" stop-opacity="0.251"/>
      <stop offset="0.54" stop-color="gray" stop-opacity="0.122"/>
      <stop offset="1" stop-color="gray" stop-opacity="0.102"/>
    </linearGradient>
    <linearGradient id="linear-gradient-2" x1="0.5" y1="1" x2="0.5" y2="0" xlink:href="#linear-gradient"/>
    <linearGradient id="linear-gradient-3" x1="0.5" y1="1" x2="0.5" y2="0" xlink:href="#linear-gradient"/>
    <linearGradient id="linear-gradient-4" x1="0.5" y1="1.001" x2="0.5" y2="-0.002" xlink:href="#linear-gradient"/>
  </defs>
  <g id="website" transform="translate(0.002)">
    <path id="Tracé_2" data-name="Tracé 2" class="cls-1" d="M645.067,624.093c-1-4.944-4.284-8.67-6.7-12.855a40.771,40.771,0,0,1-1.784-35.326c2.325-5.3,5.969-10.779,4.65-16.566-.884-3.893-3.819-6.56-6.7-8.649a57.391,57.391,0,0,0-36.368-11.2c-15.659.766-31.265,8.259-46.621,4.547-14.955-3.628-27.626-12.611-43.273-13.676-11.689-.794-23.25.1-34.962-1.434a433.155,433.155,0,0,0-87.145-2.493,433.157,433.157,0,0,0-87.14,2.493c-11.683,1.532-23.25.641-34.962,1.434-15.693,1.059-28.335,10.055-43.3,13.676-15.362,3.719-30.963-3.781-46.621-4.547a57.391,57.391,0,0,0-36.368,11.2c-2.906,2.089-5.812,4.756-6.7,8.649-1.314,5.78,2.325,11.26,4.65,16.566a40.771,40.771,0,0,1-1.773,35.326c-2.418,4.178-5.7,7.91-6.7,12.855-2.011,9.944,6.057,18.7,13.95,22.652,21.535,10.786,47.726,5.571,67.424,20.591,8.829,6.741,16.554,17.562,27.016,17.966,7.074.272,13.508-4.436,19.687-8.579a175.529,175.529,0,0,1,28.893-15.717c8.719-3.719,17.955-6.7,27.156-5.466,14.049,1.859,74.777,37.011,102.153,16.239,18.751-14.24,33.375-14.359,47.458-16.246,9.2-1.233,18.431,1.748,27.156,5.466a175.529,175.529,0,0,1,28.893,15.717c6.173,4.143,12.613,8.851,19.687,8.579,10.462-.4,18.187-11.225,27.016-17.966,19.687-15.027,45.872-9.8,67.424-20.591C639.01,642.776,647.084,634.044,645.067,624.093Z" transform="translate(-124.917 -307.907)"/>
    <path id="Tracé_3" data-name="Tracé 3" class="cls-2" d="M643.152,624.285c-.986-4.874-4.228-8.579-6.612-12.715a40.438,40.438,0,0,1-1.74-34.936c2.32-5.243,5.892-10.661,4.593-16.378-.876-3.851-3.77-6.49-6.612-8.551a56.55,56.55,0,0,0-35.888-11.086c-15.45.752-30.848,8.168-46.008,4.492-14.766-3.579-27.258-12.479-42.725-13.53-11.535-.78-22.966.1-34.5-1.393a426.518,426.518,0,0,0-86-2.465,426.519,426.519,0,0,0-86,2.465c-11.53,1.518-22.961.633-34.5,1.393-15.462,1.044-27.96,9.944-42.725,13.53-15.154,3.677-30.558-3.739-46.008-4.492a56.55,56.55,0,0,0-35.888,11.086c-2.842,2.089-5.736,4.7-6.612,8.551-1.3,5.717,2.32,11.142,4.593,16.378a40.438,40.438,0,0,1-1.74,34.936c-2.389,4.136-5.626,7.82-6.612,12.715-2.036,9.832,5.927,18.495,13.7,22.367,21.255,10.661,47.1,5.5,66.521,20.361,8.7,6.664,16.337,17.374,26.678,17.771,6.959.272,13.339-4.387,19.429-8.489a173.108,173.108,0,0,1,28.517-15.549c8.612-3.684,17.718-6.629,26.8-5.411,13.919,1.866,73.829,36.607,100.82,16.065,18.506-14.08,32.936-14.2,46.832-16.065,9.082-1.219,18.193,1.727,26.8,5.411A173.1,173.1,0,0,1,516.8,676.3c6.1,4.094,12.446,8.753,19.429,8.488,10.323-.4,17.95-11.1,26.678-17.771,19.429-14.86,45.271-9.7,66.521-20.361C637.179,642.78,645.141,634.118,643.152,624.285Z" transform="translate(-126.414 -308.301)"/>
    <path id="Tracé_4" data-name="Tracé 4" class="cls-3" d="M148.408,363.661a12.567,12.567,0,0,1,6.191-1c3.482.606,5.926,3.906,6.963,7.3s1,6.963,1.664,10.445,2.242,7.082,5.362,8.746,6.8,1.01,10.264.606a64.818,64.818,0,0,1,13.669-.125c3.816.369,8.3,1.657,9.422,5.327.919,2.994-.905,6.051-2.089,8.941a20.793,20.793,0,0,0,.146,17.04c2.6,5.25,7.862,9.164,10.062,14.707a7.27,7.27,0,0,1,.529,4.436,8.092,8.092,0,0,1-1.574,2.855c-1.727,2.221-3.788,4.178-5.362,6.518-3.28,4.874-4.178,10.933-4.554,16.789a122.425,122.425,0,0,0,.1,17.29c-4.276-1.393-9-.153-13.4-1.065-9.38-1.936-15.236-13.036-24.79-13.711-4.519-.32-9.38,1.81-13.412-.258a10.125,10.125,0,0,1-4.289-4.874A17.3,17.3,0,0,1,142.2,452c.7-2.688,2.089-5.32,1.817-8.085a10.955,10.955,0,0,0-3.28-6.191c-4.645-4.93-11.385-7.945-14.721-13.843a15.772,15.772,0,0,1,1.873-17.75,46.588,46.588,0,0,0,3.377-3.67c1.6-2.256,2.089-5.1,2.3-7.869.46-6.622-.7-13.634,1.469-20.069C136.988,368.7,142.921,365.611,148.408,363.661Z" transform="translate(-124.062 -234.686)"/>
    <path id="Tracé_5" data-name="Tracé 5" class="cls-4" d="M159.14,364.42s19.017,105.615,43.71,118.212" transform="translate(-134.697 -235.236)"/>
    <path id="Tracé_6" data-name="Tracé 6" class="cls-4" d="M217.365,406.4S197,409.185,176.65,430.111" transform="translate(-140.014 -245.869)"/>
    <path id="Tracé_7" data-name="Tracé 7" class="cls-4" d="M164.275,452.393a52.8,52.8,0,0,0-40.165-12.722" transform="translate(-124.06 -257.969)"/>
    <path id="Tracé_8" data-name="Tracé 8" class="cls-4" d="M230.907,467.64s-28.606,2.43-39.2,13.412" transform="translate(-144.587 -268.846)"/>
    <path id="Tracé_9" data-name="Tracé 9" class="cls-4" d="M184.429,501.423s-16.016-2.785-30.8,6.65" transform="translate(-133.024 -281.235)"/>
    <path id="Tracé_10" data-name="Tracé 10" class="cls-3" d="M960.954,244.233c-3.2-1.135-6.588-2.173-9.923-1.595-5.571.975-9.5,6.267-11.142,11.692s-1.609,11.211-2.667,16.782-3.593,11.344-8.593,14.018-10.9,1.615-16.455.975a103.9,103.9,0,0,0-21.893-.23c-6.121.592-13.3,2.66-15.1,8.537-1.469,4.8,1.448,9.693,3.4,14.324,3.642,8.656,3.934,18.9-.237,27.318-4.241,8.565-12.6,14.693-16.128,23.571a11.672,11.672,0,0,0-.849,7.1,12.974,12.974,0,0,0,2.528,4.582c2.785,3.565,6.072,6.706,8.593,10.445,5.257,7.8,6.685,17.52,7.3,26.907a196.243,196.243,0,0,1-.153,27.708c6.852-2.256,14.428-.244,21.489-1.7,15.034-3.1,24.421-20.89,39.734-21.977,7.242-.508,15.034,2.9,21.5-.418,3.148-1.616,5.383-4.631,6.88-7.841a27.728,27.728,0,0,0,1.664-18.592c-1.135-4.31-3.342-8.523-2.911-12.959.369-3.8,2.639-7.145,5.257-9.916,7.444-7.9,18.251-12.736,23.6-22.186a25.288,25.288,0,0,0-3-28.453c-1.769-2-3.872-3.711-5.417-5.884-2.569-3.614-3.391-8.182-3.7-12.611-.731-10.619,1.072-21.851-2.361-32.164C979.234,252.282,969.729,247.317,960.954,244.233Z" transform="translate(-450.525 -175.967)"/>
    <path id="Tracé_11" data-name="Tracé 11" class="cls-4" d="M973.676,245.4S943.2,414.689,903.61,434.876" transform="translate(-463.428 -198.178)"/>
    <path id="Tracé_12" data-name="Tracé 12" class="cls-4" d="M882.44,312.69s32.645,4.484,65.262,38.014" transform="translate(-457 -210.202)"/>
    <path id="Tracé_13" data-name="Tracé 13" class="cls-4" d="M967.92,386.407s25.131-24.574,64.377-20.4" transform="translate(-482.956 -229.964)"/>
    <path id="Tracé_14" data-name="Tracé 14" class="cls-4" d="M861.85,410.85s45.847,3.893,62.824,21.5" transform="translate(-453.528 -247.467)"/>
    <path id="Tracé_15" data-name="Tracé 15" class="cls-4" d="M942.17,465s25.688-4.5,49.371,10.654" transform="translate(-475.137 -267.46)"/>
    <path id="Tracé_16" data-name="Tracé 16" class="cls-5" d="M74.91,0V338H527.024V0Z" transform="translate(-22.732)"/>
    <rect id="Rectangle_91" data-name="Rectangle 91" class="cls-6" width="399.932" height="316.11" transform="translate(59.685 15.647)"/>
    <rect id="Rectangle_92" data-name="Rectangle 92" class="cls-7" width="399.932" height="23.759" transform="translate(59.685 0.286)"/>
    <circle id="Ellipse_1" data-name="Ellipse 1" class="cls-8" cx="5.759" cy="5.759" r="5.759" transform="translate(72.7 6.044)"/>
    <circle id="Ellipse_2" data-name="Ellipse 2" class="cls-9" cx="5.759" cy="5.759" r="5.759" transform="translate(88.542 6.044)"/>
    <circle id="Ellipse_3" data-name="Ellipse 3" class="cls-10" cx="5.759" cy="5.759" r="5.759" transform="translate(107.425 6.044)"/>
    <rect id="Rectangle_93" data-name="Rectangle 93" class="cls-11" width="183.835" height="7.66" transform="translate(78.591 67.396)"/>
    <rect id="Rectangle_94" data-name="Rectangle 94" class="cls-11" width="183.835" height="7.66" transform="translate(78.591 68.609)"/>
    <rect id="Rectangle_95" data-name="Rectangle 95" class="cls-11" width="183.835" height="7.66" transform="translate(78.591 82.186)"/>
    <rect id="Rectangle_96" data-name="Rectangle 96" class="cls-11" width="120.468" height="7.66" transform="translate(115.091 95.762)"/>
    <rect id="Rectangle_97" data-name="Rectangle 97" class="cls-11" width="96.792" height="7.66" transform="translate(78.591 109.338)"/>
    <rect id="Rectangle_98" data-name="Rectangle 98" class="cls-11" width="74.509" height="7.66" transform="translate(107.993 122.914)"/>
    <rect id="Rectangle_99" data-name="Rectangle 99" class="cls-11" width="216.564" height="124.646" transform="translate(220.816 97.419)"/>
    <rect id="Rectangle_100" data-name="Rectangle 100" class="cls-7" width="216.564" height="124.646" transform="translate(240.652 107.385)"/>
    <path id="Tracé_17" data-name="Tracé 17" class="cls-12" d="M1011.842,449.661a3.863,3.863,0,0,0,.7-2.22s0-.046,0-.061.042-.161.063-.238v-.1q.005-.111,0-.223s0-.061,0-.092a1.687,1.687,0,0,0,0-.277c-.411-3.073-16.963-23.094-21.1-47.518a46.644,46.644,0,0,0-2.04-7.783,11.839,11.839,0,0,0-.223-3.765c-.7-3.127-2.089-6.3-1.393-9.419a8.145,8.145,0,0,1,.383-1.191,47.744,47.744,0,0,0,2.388-4.372,11.036,11.036,0,0,0,.7-1.536c2.542-7.391-5.327-15.02-3.879-22.733.627-3.342,2.973-6.261,2.911-9.665-.077-3.9-3.322-6.914-6.692-8.359s-7.082-1.859-10.39-3.473c-7.249-3.542-11.218-12.093-17.833-16.848-8.4-6.031-19.372-4.955-29.448-3.4a2.071,2.071,0,0,0-1.546,1.26h-.1c-.077.246-.167.484-.265.722-1.393,2.62-3.739,4.61-6.058,6.446-2.827,2.2-5.856,4.364-7.583,7.621-.258.484-.474.945-.661,1.391-3.76,7.4.759,10.595,6.267,12.369a21.046,21.046,0,0,0-.251,3.2c0,10.756,8.154,19.537,18.2,19.537a17.121,17.121,0,0,0,2.375-.169l.585.423h.132a11.978,11.978,0,0,1,4.178,5.555l-5.835,4.917s.237.676.585,1.752l-22.938,11.662c-8.69.446-22.757-29.755-22.757-29.755S888.227,336.01,880.8,332.9c-2.242-.937-3.134,1.022-3.287,4.218-3.322,3.841,2.256,25.415,2.256,25.415l17.792,34.642c1.657,3.549,2.089,5.77,9.93,7.107,6.455,1.091,26.566-6.792,33.564-9.65l.327,3.073a19.693,19.693,0,0,0-1.058,7.352c0,5.662,2.291,13.9,13.474,20.459,0,0,11.546,16.464,10.264,32.006,0,0,.557.645,1.448,1.49-.125,4.379-.7,9.78-2.695,11.885a1.253,1.253,0,0,0-.313,1.091,1.159,1.159,0,0,0,.488,1.191l-14.575,28.157c-.543.768-1.093,1.537-1.657,2.3a79.78,79.78,0,0,1-8.976,10.564c-2.43,2.389-4.958,5-5.459,5.977-.773,1.536-2.716,6.492-1.894,10.587a60.835,60.835,0,0,1,1.3,15.166l-1.887,36.424a103.3,103.3,0,0,1-2.611,12.024h-.286s-7.033,9.327-18.2,11.524-10.759,8.451-7.451,9.327,43.445-.891,43.445-.891a13,13,0,0,0,1.1-6.246c12.813-1.36,30.563-3.665,30.563-3.665s2.43-6.446-1.1-9.258a9.143,9.143,0,0,1-2.827-4.433c-.209-.983-.439-2.105-.662-3.281-.056-.576-.056-.93-.056-.93h-.118c-.62-3.434-1.114-7.114-.829-9.043,1.038-5.109,3.726-34.642-2.9-43.077-3.008-3.841-2.6-8.205-1.26-11.847,7.945-5.739,19.059-18.085,25.486-25.553.362.33.7.661,1.01.991l.209.223s21.872-11.947,21.963-33.036a35.229,35.229,0,0,0-3.468-15.527ZM941.782,598.43a13.675,13.675,0,0,1,.077-2.3l-.7-.084c.4-3.35,1.393-7.1,3.607-9.688a87.919,87.919,0,0,0,7.966-24.339l4.018,16.771s.4,3.473.515,7.145h-.07S951.594,594.757,941.782,598.43Z" transform="translate(-455.182 -270.114)"/>
    <path id="Tracé_18" data-name="Tracé 18" class="cls-13" d="M961.9,386.24s-9.825,3.537-15.32,9.435c0,0-26.733,10.612-34.2,9.435s-7.862-3.147-9.436-6.267l-16.907-30.639s-7.075-25.556,0-22.805,9.053,18.1,9.053,18.1,13.37,26.733,21.622,26.343l22.387-10.668s5.111-7.472,7.472-7.075S961.9,386.24,961.9,386.24Z" transform="translate(-457.135 -223.881)"/>
    <g id="Groupe_21" data-name="Groupe 21" class="cls-14" transform="translate(425.75 121.312)">
      <path id="Tracé_19" data-name="Tracé 19" d="M961.9,386.24s-9.825,3.537-15.32,9.435c0,0-26.733,10.612-34.2,9.435s-7.862-3.147-9.436-6.267l-16.907-30.639s-7.075-25.556,0-22.805,9.053,18.1,9.053,18.1,13.37,26.733,21.622,26.343l22.387-10.668s5.111-7.472,7.472-7.075S961.9,386.24,961.9,386.24Z" transform="translate(-882.884 -345.193)"/>
    </g>
    <path id="Tracé_20" data-name="Tracé 20" class="cls-15" d="M969.751,382.884l-7.841,6.156s3.92,10.257,2.938,13.85,15.682-5.64,15.682-5.64l-6.859-15.389Z" transform="translate(-481.131 -236.305)"/>
    <g id="Groupe_22" data-name="Groupe 22" class="cls-14" transform="translate(480.779 145.555)">
      <path id="Tracé_21" data-name="Tracé 21" d="M969.751,382.884l-7.841,6.156s3.92,10.257,2.938,13.85,15.682-5.64,15.682-5.64l-6.859-15.389Z" transform="translate(-961.91 -381.86)"/>
    </g>
    <path id="Tracé_22" data-name="Tracé 22" class="cls-13" d="M953.73,368.352s17.492,5.7,9.436,15.723l25.159-12.186s-10.612.787-17.3-15.32Z" transform="translate(-478.647 -226.798)"/>
    <path id="Tracé_23" data-name="Tracé 23" class="cls-13" d="M991.722,520.85,970.1,559.769l14.554,56.585s1.574,12.583-.787,13.76h16.51s-3.182-11.142-2.361-14.937c.982-4.519,3.537-30.639-2.785-38.132s3.147-17.3,3.147-17.3l18.871-29.88Z" transform="translate(-483.618 -313.096)"/>
    <g id="Groupe_23" data-name="Groupe 23" class="cls-14" transform="translate(486.482 207.754)">
      <path id="Tracé_24" data-name="Tracé 24" d="M991.722,520.85,970.1,559.769l14.554,56.585s1.574,12.583-.787,13.76h16.51s-2.945-11.2-2.361-14.937,3.537-30.639-2.785-38.132,3.147-17.3,3.147-17.3l18.871-29.88Z" transform="translate(-970.1 -520.85)"/>
    </g>
    <path id="Tracé_25" data-name="Tracé 25" class="cls-16" d="M980.711,667.12s-5.989,8.823-16.434,11.622-9.6,8.259-6.4,8.788,41.084-4.06,41.084-4.06,2.3-5.7-1.045-8.2-3.37-7.66-3.37-7.66Z" transform="translate(-479.257 -350.968)"/>
    <g id="Groupe_24" data-name="Groupe 24" class="cls-17" transform="translate(506.488 216.964)">
      <path id="Tracé_26" data-name="Tracé 26" d="M1001.629,498.26s.933,12.785-2.472,16.141a1.031,1.031,0,0,0,.209,1.657l10.125,5.4,9.052-17.3Z" transform="translate(-998.83 -498.26)"/>
    </g>
    <path id="Tracé_27" data-name="Tracé 27" class="cls-18" d="M1001.629,497.7s.933,12.785-2.472,16.141a1.031,1.031,0,0,0,.209,1.657l10.125,5.4,9.052-17.3Z" transform="translate(-492.342 -281.08)"/>
    <g id="Groupe_25" data-name="Groupe 25" class="cls-17" transform="translate(506.488 217.234)">
      <path id="Tracé_28" data-name="Tracé 28" d="M1001.629,498.7s.933,12.785-2.472,16.141a1.031,1.031,0,0,0,.209,1.657l10.125,5.4,9.052-17.3Z" transform="translate(-998.83 -498.7)"/>
    </g>
    <path id="Tracé_29" data-name="Tracé 29" class="cls-13" d="M986.108,533.83s-5.842,3.9-18.1,19.95a72.211,72.211,0,0,1-8.53,9.352,39.286,39.286,0,0,0-5.188,5.292c-.738,1.33-2.583,5.752-1.8,9.373a50.319,50.319,0,0,1,1.233,13.426l-1.79,32.248s-2.361,14.547-5.5,16.12l16.12,2.785s-1.177-10.222,3.537-15.32c0,0,11.009-18.871,8.259-40.1,0,0-1.177-9.435,9.436-14.547s32.241-29.88,32.241-29.88Z" transform="translate(-476.431 -310.494)"/>
    <path id="Tracé_30" data-name="Tracé 30" class="cls-16" d="M938.865,677.8s-6.685,8.259-17.3,10.222-10.222,7.472-7.075,8.259,41.279-.787,41.279-.787,2.786-5.5-.39-8.259-2.361-7.862-2.361-7.862Z" transform="translate(-466.142 -354.211)"/>
    <g id="Groupe_26" data-name="Groupe 26" class="cls-17" transform="translate(508.32 209.698)">
      <path id="Tracé_31" data-name="Tracé 31" d="M1012.651,499.452s-4.8,16.113-10.877,20.807a.78.78,0,0,0,.2,1.358c5.028,1.831,21.183,8,26.8,13.614l.195.2s33.613-17.1,15.528-46.2Z" transform="translate(-1001.461 -489.23)"/>
    </g>
    <path id="Tracé_32" data-name="Tracé 32" class="cls-18" d="M1012.651,498.892s-4.8,16.113-10.877,20.807a.78.78,0,0,0,.2,1.358c5.028,1.831,21.183,8,26.8,13.614l.195.2s33.613-17.1,15.528-46.2Z" transform="translate(-493.141 -279.313)"/>
    <g id="Groupe_27" data-name="Groupe 27" class="cls-17" transform="translate(483.801 138.613)">
      <path id="Tracé_33" data-name="Tracé 33" d="M974.356,385.2a30.761,30.761,0,0,1-8.106,3.872l2.7,24.045s-6.316,14.136,11.747,24.01c0,0,10.968,14.575,9.749,28.334,0,0,5.884,6.309,9.818,4.742s.39.787,1.177.4,2.354,3.154,14.547.035,20.89-11.344,20.48-14.1-16.065-20.487-19.943-42.122-27.032-37.025-27.032-37.025-.766.425-2.089.989A91.545,91.545,0,0,0,974.356,385.2Z" transform="translate(-966.25 -377.39)"/>
    </g>
    <g id="Groupe_28" data-name="Groupe 28" class="cls-17" transform="translate(508.324 209.357)">
      <path id="Tracé_34" data-name="Tracé 34" d="M1001.469,534a.766.766,0,0,0,.508.787c4.331,1.581,16.921,6.378,23.912,11.267C1019.838,541.165,1006.963,536.089,1001.469,534Z" transform="translate(-1001.466 -502.435)"/>
      <path id="Tracé_35" data-name="Tracé 35" d="M1055.9,488.67l-.7.237c15.452,27.011-13.648,43.327-16.19,44.685a12.965,12.965,0,0,1,1.2,1.079l.2.2S1073.98,517.763,1055.9,488.67Z" transform="translate(-1012.866 -488.67)"/>
    </g>
    <path id="Tracé_36" data-name="Tracé 36" class="cls-15" d="M1016.06,469.491c-12.186,3.148-13.76-.39-14.547,0s2.785-1.964-1.177-.39-9.826-4.721-9.826-4.721c.056-.7.084-1.344.084-2.019.042-13.147-9.944-26.287-9.944-26.287-18.1-9.825-11.8-23.982-11.8-23.982l-.738-6.448-2.026-17.59a30.723,30.723,0,0,0,8.092-3.886,92.04,92.04,0,0,1,13.029-6.852c1.33-.571,2.089-1,2.089-1s23.2,15.32,27.157,36.955,19.658,39.316,20.048,42.066S1028.246,466.344,1016.06,469.491Z" transform="translate(-482.4 -238.341)"/>
    <g id="Groupe_29" data-name="Groupe 29" class="cls-17" transform="translate(475.473 130.641)">
      <path id="Tracé_37" data-name="Tracé 37" d="M971.587,357.12l-17.3,11.8a29.428,29.428,0,0,1,6.748,3.363c5.891-.829,9.5-5.049,11.928-10.243C972.019,360.518,972.437,359.16,971.587,357.12Z" transform="translate(-954.29 -357.12)"/>
    </g>
    <circle id="Ellipse_4" data-name="Ellipse 4" class="cls-13" cx="17.297" cy="17.297" r="17.297" transform="translate(462.11 112.528)"/>
    <g id="Groupe_30" data-name="Groupe 30" class="cls-17" transform="translate(483.724 147.918)">
      <path id="Tracé_38" data-name="Tracé 38" d="M1018.826,472.195c-12.186,3.147-13.76-.39-14.547,0s2.785-1.964-1.177-.39-9.825-4.721-9.825-4.721c.056-.7.084-1.344.084-2.019.049-13.126-9.916-26.287-9.916-26.287-18.105-9.825-11.8-23.982-11.8-23.982l-.731-6.455L969,391.69a19.03,19.03,0,0,1-2.862,1.024l1.992,17.6.745,6.448s-6.267,14.157,11.8,23.982c0,0,9.965,13.161,9.916,26.287a16.147,16.147,0,0,1-.084,2.019s5.9,6.267,9.825,4.721.39.787,1.177.39,2.361,3.148,14.547,0a42.22,42.22,0,0,0,15.229-7.458A42.863,42.863,0,0,1,1018.826,472.195Z" transform="translate(-966.14 -391.69)"/>
    </g>
    <path id="Tracé_39" data-name="Tracé 39" class="cls-13" d="M960.486,391.16s-9.825,3.537-15.32,9.435c0,0-26.733,10.612-34.2,9.435s-7.862-3.147-9.435-6.267l-16.907-30.639s-7.075-25.556,0-22.805,9.052,18.1,9.052,18.1,13.37,26.733,21.622,26.343l22.395-10.682s5.111-7.472,7.472-7.075S960.486,391.16,960.486,391.16Z" transform="translate(-456.707 -225.821)"/>
    <g id="Groupe_31" data-name="Groupe 31" class="cls-17" transform="translate(479.802 149.348)">
      <path id="Tracé_40" data-name="Tracé 40" d="M971.212,388.385s-8.154-.745-10.515,9.477,18.105,16.51,18.105,16.51l11.009-15.32Z" transform="translate(-960.508 -388.373)"/>
    </g>
    <path id="Tracé_41" data-name="Tracé 41" class="cls-15" d="M971.782,388.385s-8.154-.745-10.515,9.477,18.105,16.51,18.105,16.51l11.009-15.32Z" transform="translate(-480.878 -239.025)"/>
    <g id="Groupe_32" data-name="Groupe 32" class="cls-17" transform="translate(483.717 138.282)">
      <path id="Tracé_42" data-name="Tracé 42" d="M969.988,391a21.11,21.11,0,0,1-3.858,1.49l.07.592A40.674,40.674,0,0,0,969.988,391Z" transform="translate(-966.13 -380.778)"/>
      <path id="Tracé_43" data-name="Tracé 43" d="M1041.226,455.341c-.39-2.785-16.12-20.445-20.048-42.066s-27.158-36.955-27.158-36.955-.766.425-2.089,1A94.3,94.3,0,0,0,981.64,382.5q3.308-1.741,6.755-3.217c1.33-.571,2.089-1,2.089-1s23.2,15.32,27.158,36.955,19.658,39.316,20.048,42.066c.251,1.734-3.1,5.654-8.662,9.108C1036.665,462.625,1041.526,457.417,1041.226,455.341Z" transform="translate(-970.84 -376.32)"/>
    </g>
    <path id="Tracé_44" data-name="Tracé 44" class="cls-19" d="M983.16,388.62s10.167,5.035,12.082,14.714" transform="translate(-487.584 -238.564)"/>
    <g id="Groupe_33" data-name="Groupe 33" class="cls-17" transform="translate(455.109 100.097)">
      <path id="Tracé_45" data-name="Tracé 45" d="M940.654,340.036c1.622.362,3.433.87,4.234,2.326.578,1.058.473,2.388,1.037,3.482,1.448,2.73,5.7,1.79,8.356,3.391,4.874,2.939,1.692,12.1,6.546,15.055.912.557,1.992.78,2.932,1.288,4.1,2.242,3.524,8.175,2.785,12.792s.139,10.933,4.77,11.587c2.549.355,5.411-1.33,7.555.084,1.121.738,1.629,2.089,2.569,3.071a4.679,4.679,0,0,0,5.028,1.038c1.574-.655,2.709-2.152,4.345-2.632,2.632-.773,5.571,1.358,8.105.376s3.113-4.645,2.458-7.409-1.992-5.571-1.3-8.356c.578-2.3,2.458-4.053,3.28-6.267,2.409-6.539-5.062-13.293-3.684-20.124.6-2.959,2.827-5.571,2.785-8.558-.07-3.482-3.155-6.121-6.365-7.4s-6.734-1.643-9.874-3.071c-6.887-3.134-10.654-10.71-16.949-14.916a23.766,23.766,0,0,0-9.324-3.579,30.569,30.569,0,0,0-24.33,6.615c-.62.5-1.253.975-1.894,1.435-2.688,1.943-5.571,3.858-7.207,6.741C920.543,337.4,934.268,338.6,940.654,340.036Z" transform="translate(-925.046 -311.822)"/>
    </g>
    <path id="Tracé_46" data-name="Tracé 46" class="cls-2" d="M941.354,338.63c1.623.362,3.433.87,4.234,2.326.578,1.058.474,2.388,1.038,3.482,1.448,2.73,5.7,1.79,8.356,3.391,4.874,2.939,1.692,12.1,6.546,15.055.912.557,1.991.78,2.932,1.288,4.1,2.242,3.524,8.175,2.785,12.792s.139,10.933,4.77,11.587c2.549.355,5.411-1.33,7.555.084,1.121.738,1.63,2.089,2.57,3.071a4.679,4.679,0,0,0,5.028,1.038c1.574-.655,2.709-2.152,4.345-2.632,2.632-.773,5.571,1.358,8.105.376s3.113-4.645,2.458-7.409-1.992-5.571-1.3-8.356c.578-2.3,2.458-4.053,3.28-6.267,2.409-6.539-5.062-13.293-3.684-20.124.6-2.959,2.827-5.571,2.785-8.558-.07-3.482-3.155-6.121-6.365-7.4s-6.734-1.643-9.874-3.071c-6.887-3.134-10.654-10.71-16.949-14.916a23.326,23.326,0,0,0-8.426-3.412,30.591,30.591,0,0,0-25.25,6.462c-.613.494-1.246.968-1.873,1.393-2.688,1.943-5.571,3.858-7.207,6.741C921.244,336,934.976,337.2,941.354,338.63Z" transform="translate(-470.15 -211.164)"/>
    <path id="Tracé_47" data-name="Tracé 47" class="cls-2" d="M694.064,492.427H572.9V469.594C602.5,455.757,648.05,447.986,694.064,492.427Z" transform="translate(-319.581 -266.748)"/>
    <g id="Groupe_34" data-name="Groupe 34" class="cls-17" transform="translate(301.06 192.03)">
      <path id="Tracé_48" data-name="Tracé 48" d="M816.007,489.161v3.266H664.9v-.7S739.256,419.331,816.007,489.161Z" transform="translate(-664.9 -458.778)"/>
    </g>
    <path id="Tracé_49" data-name="Tracé 49" class="cls-2" d="M818.007,489.161v3.266H666.9v-.7S741.256,419.331,818.007,489.161Z" transform="translate(-364.727 -266.748)"/>
    <circle id="Ellipse_5" data-name="Ellipse 5" class="cls-2" cx="11.142" cy="11.142" r="11.142" transform="translate(274.16 122.341)"/>
    <path id="Tracé_50" data-name="Tracé 50" class="cls-20" d="M740.113,347.875c-1.274,0-2.695,0-3.663.077a4.458,4.458,0,0,0-1.267.258l-6.553,2.354c5.292.132,10.814.091,16.239.049l30.416-.237c3.106,0,6.365-.056,8.948-.237,1.734-.125,3.008-.306,4.61-.446,5.759-.515,14.15-.418,21.649-.39s16.552-.167,19.191-.919h-16.1c-1.734,0-3.558,0-5.09-.084-1.79-.1-2.883-.3-4.457-.439-2.6-.223-6.2-.251-9.54-.265C776.149,347.519,758.03,347.951,740.113,347.875Z" transform="translate(-384.57 -222.346)"/>
    <path id="Tracé_51" data-name="Tracé 51" class="cls-20" d="M769.925,367.35h-.794a.969.969,0,0,0-.279.056l-1.393.508h3.517l6.587-.049c.7,0,1.393,0,1.936-.049.376,0,.655-.07,1-.1,1.246-.111,3.064-.091,4.693-.084a25.571,25.571,0,0,0,4.178-.2h-4.582a9.5,9.5,0,0,1-.968-.1c-.564-.049-1.344-.056-2.089-.056C777.759,367.28,773.831,367.371,769.925,367.35Z" transform="translate(-391.189 -229.769)"/>
    <path id="Tracé_52" data-name="Tracé 52" class="cls-20" d="M702.925,395.35h-.794a.967.967,0,0,0-.279.056l-1.393.508h3.516l6.587-.049c.7,0,1.393,0,1.936-.049.376,0,.655-.07,1-.1,1.246-.111,3.064-.091,4.693-.084a25.571,25.571,0,0,0,4.178-.2h-4.582a9.479,9.479,0,0,1-.968-.1c-.564-.049-1.344-.056-2.089-.056C710.759,395.28,706.832,395.371,702.925,395.35Z" transform="translate(-363.37 -240.454)"/>
    <path id="Tracé_53" data-name="Tracé 53" class="cls-2" d="M664.052,465.551h-5.237s-1.636-57.268,5.237-74.941h1.309S660.779,455.405,664.052,465.551Z" transform="translate(-344.627 -242.737)"/>
    <path id="Tracé_54" data-name="Tracé 54" class="cls-2" d="M653.81,373.83s-4.255,11.782-2.291,17.019c0,0,2.946-10.8,6.379-12.437s7.033,12.437,7.033,12.437,1.964-8.837-1.636-16.016a28.45,28.45,0,0,1,10.8,11.455s.655-4.874-7.855-15.055c0,0,7.527,1.964,12.437,6.546,0,0,1.636-3.6-8.509-9.491,0,0,1.309-4.255,9.164-2.291,0,0,0-5.571-12.437-4.582,0,0,0-3.6,8.182-2.946,0,0,0-4.582-9.491-2.946,0,0,1.964-2.946,3.273-3.6a6.58,6.58,0,0,0-4.582,1.309s.327-5.891-4.582-8.182l-.655,8.182s-5.5-6.483-4.255-5.236a14.353,14.353,0,0,1,.982,6.218s-5.571-4.582-12.437.327c0,0,8.509.655,9.818,3.6,0,0-7.2-1.309-8.837-.327,0,0,5.571,1.964,5.237,3.273,0,0-9.819,0-11.142,3.6,0,0,10.146,1.309,10.8,2.291,0,0-11.782,8.509-12.437,10.8,0,0,12.109-7.2,14.073-7.2s-8.837,10.445-8.182,13.091C642.689,383.648,651.553,373.175,653.81,373.83Z" transform="translate(-338.829 -223.145)"/>
    <path id="Tracé_55" data-name="Tracé 55" class="cls-2" d="M758.723,470.184h4s1.253-43.751-4-57.254h-1S761.23,462.419,758.723,470.184Z" transform="translate(-385.342 -250.405)"/>
    <path id="Tracé_56" data-name="Tracé 56" class="cls-2" d="M754.611,400.111s3.252,9,1.748,13c0,0-2.249-8.252-4.874-9.5s-5.376,9.5-5.376,9.5-1.5-6.748,1.253-12.249a21.733,21.733,0,0,0-8.252,8.753s-.5-3.753,6-11.5c0,0-5.752,1.5-9.5,5,0,0-1.253-2.751,6.5-7.249,0,0-1-3.252-7-1.748,0,0,0-4.248,9.5-3.482,0,0,0-2.751-6.267-2.249,0,0,0-3.482,7.249-2.249a10.952,10.952,0,0,0-2.5-2.751,5.028,5.028,0,0,1,3.482,1s-.251-4.5,3.482-6.267l.5,6.267s4.178-4.951,3.252-4a10.97,10.97,0,0,0-.752,4.749s4.248-3.482,9.5.251c0,0-6.5.5-7.5,2.751,0,0,5.5-1,6.748-.251,0,0-4.248,1.5-4,2.5,0,0,7.5,0,8.5,2.751,0,0-7.75,1-8.252,1.748,0,0,9,6.5,9.5,8.252,0,0-9.248-5.5-10.752-5.5s6.748,8,6.267,10C763.113,407.61,756.366,399.623,754.611,400.111Z" transform="translate(-378.901 -235.507)"/>
    <path id="Tracé_57" data-name="Tracé 57" class="cls-2" d="M827.62,467.408H830.1s.773-27.095-2.479-35.458H827S829.166,462.624,827.62,467.408Z" transform="translate(-413.685 -256.447)"/>
    <path id="Tracé_58" data-name="Tracé 58" class="cls-2" d="M825.072,424s2.012,5.571,1.086,8.05c0,0-1.393-5.111-3.022-5.884s-3.329,5.884-3.329,5.884a12.976,12.976,0,0,1,.773-7.59,13.46,13.46,0,0,0-5.111,5.418s-.307-2.326,3.718-7.124a15.71,15.71,0,0,0-5.884,3.1s-.773-1.706,4.025-4.491c0,0-.62-2.013-4.338-1.086,0,0,0-2.632,5.884-2.166,0,0,0-1.706-3.872-1.393,0,0,0-2.166,4.492-1.393a6.8,6.8,0,0,0-1.546-1.706,3.113,3.113,0,0,1,2.166.62,4.2,4.2,0,0,1,2.166-3.872l.306,3.872s2.6-3.064,2.013-2.479a6.789,6.789,0,0,0-.467,2.939,4.826,4.826,0,0,1,5.884.153s-4.025.306-4.645,1.706c0,0,3.405-.62,4.178-.153,0,0-2.632.926-2.479,1.546,0,0,4.645,0,5.264,1.706,0,0-4.8.62-5.111,1.086,0,0,5.571,4.025,5.884,5.111,0,0-5.731-3.405-6.657-3.405s4.178,4.958,3.872,6.191C830.336,428.649,826.151,423.691,825.072,424Z" transform="translate(-409.88 -247.292)"/>
    <path id="Tracé_59" data-name="Tracé 59" class="cls-21" d="M691.736,433.851h0l-.522-2.785a1.511,1.511,0,0,0-.474-1.093l-2.416-1.184h0a2.737,2.737,0,0,1-.432-.7l.042-.063a1.449,1.449,0,0,0,.279-.564.975.975,0,0,0,0-.16h.035a.9.9,0,0,0,1-.7v-.063a.9.9,0,0,1-.815.7,2.465,2.465,0,0,0,1.093-2.047v-.1a.891.891,0,0,0,.411-.6v-.063a.891.891,0,0,1-.425.557,2.452,2.452,0,0,0-.153-.7h.063a.9.9,0,0,0,.9-.9v-.063a.9.9,0,0,1-.891.836h-.111v-.042a1.469,1.469,0,0,0,1.031-1.191v-.063a.892.892,0,0,1-.181.48.9.9,0,0,0-1.769-.265l-.16-.091a.9.9,0,0,1,.808-.655h-.063a.9.9,0,0,0-.857.606,2.465,2.465,0,0,0-3.106.891c-.188.139-.432.341-.425.515a1.7,1.7,0,0,0-.216.265,3.412,3.412,0,0,0-.279,1.859,1.971,1.971,0,0,1-.641,1.706.85.85,0,0,0,.655,0,2.523,2.523,0,0,0,.578-.341,1.3,1.3,0,0,0,.411-.4v-.035a2.029,2.029,0,0,0,.369.2c.049.418.063.9-.125,1.058h0l.035-.077a2.263,2.263,0,0,1-1.567.446,1.956,1.956,0,0,0-1.622,1.044l-.759,3.168h0v.056h0v.056h0a.244.244,0,0,0,.181.174l.237.063a4.914,4.914,0,0,1-.16,1.609,13.744,13.744,0,0,0-.272,2.368c.056.4.153,2.465.2,3.447a10.211,10.211,0,0,0-.2,1.017l-1.121,6.727s-.836,5.383-.794,7.012l-.146.94s-2.277,2.855-1.609,3.259,1.7.578,2.681-.94a2.457,2.457,0,0,1,.627-.94.919.919,0,0,0,.313-.787l-.07-.7.118.042h.07a23.212,23.212,0,0,0,1-6.267s2.089-7.4,3.656-8.558v-.049l.146-.07.334,7.165-.341,7.9-.077.473s-2.277,2.855-1.609,3.259,1.7.578,2.681-.94a2.46,2.46,0,0,1,.627-.94.919.919,0,0,0,.313-.787l-.1-1.044c.39-1.33,1.393-5.16.982-7.381l.7-4.721c.7-.787.606-2.785.606-2.785.55-1.149.7-5.654.7-5.654l.139-2.228a1.853,1.853,0,0,1,.313,0h.111v-.042a.209.209,0,0,0,.049-.063h.042v-.056h0Zm-1.95,4.526q-.094-.23-.209-.46h-.056v-.056a.283.283,0,0,1,0-.056v-.056a1.917,1.917,0,0,0,.084-.23.871.871,0,0,0,.132-.48A4.555,4.555,0,0,1,689.786,438.377Zm-.209-1.908-.139-1.49.042-.118.188,1.894Zm-6.6.2a.523.523,0,0,0-.125.4v.049a1.69,1.69,0,0,0,.063.446l-.216.933V436.72a3.945,3.945,0,0,0,.376-.6.974.974,0,0,1-.1.55Z" transform="translate(-353.146 -252.895)"/>
    <path id="Tracé_60" data-name="Tracé 60" class="cls-22" d="M686.941,426.137a3.286,3.286,0,0,0-.272,1.79,1.9,1.9,0,0,1-.62,1.643.822.822,0,0,0,.634,0,2.436,2.436,0,0,0,.557-.327,1.245,1.245,0,0,0,.4-.383,1.473,1.473,0,0,0,.091-.759,8.05,8.05,0,0,1,.118-1.358c.042-.279.306-1.038,0-1.184S687.074,425.928,686.941,426.137Z" transform="translate(-355.493 -252.178)"/>
    <path id="Tracé_61" data-name="Tracé 61" class="cls-23" d="M679.9,468.84l-.216,1.393s-2.194,2.785-1.546,3.141,1.636.557,2.583-.905a2.367,2.367,0,0,1,.6-.905h0a.884.884,0,0,0,.3-.759l-.216-2.124Z" transform="translate(-352.336 -268.721)"/>
    <path id="Tracé_62" data-name="Tracé 62" class="cls-23" d="M689.38,469.63l-.216,1.393s-2.193,2.785-1.546,3.141,1.636.557,2.583-.905a2.369,2.369,0,0,1,.6-.905h0a.885.885,0,0,0,.3-.759l-.216-2.124Z" transform="translate(-356.243 -269.024)"/>
    <path id="Tracé_63" data-name="Tracé 63" class="cls-24" d="M683.878,445.5s-1.031.745-1.393,3.335l-1.079,6.483a57.187,57.187,0,0,0-.745,7.005l1.824.627a22.429,22.429,0,0,0,.961-6.023s2.194-7.813,3.732-8.356l.327,6.9-.348,7.764,1.56.313s1.581-4.944,1.079-7.562l.815-5.571a8.319,8.319,0,0,0-.362-5.571Z" transform="translate(-354.036 -260.409)"/>
    <g id="Groupe_35" data-name="Groupe 35" class="cls-17" transform="translate(328.196 184.475)">
      <path id="Tracé_64" data-name="Tracé 64" d="M687.762,450.3v-.118c-1.539.55-3.732,8.356-3.732,8.356a21.947,21.947,0,0,1-.94,5.961l.195.07a22.434,22.434,0,0,0,.961-6.023C684.239,458.55,686.245,451.447,687.762,450.3Z" transform="translate(-683.09 -446.503)"/>
      <path id="Tracé_65" data-name="Tracé 65" d="M693.771,444.9h-.209a8.246,8.246,0,0,1,.348,5.522l-.815,5.571c.48,2.479-.919,7.04-1.065,7.521l.2.042s1.581-4.944,1.079-7.562l.815-5.571A8.16,8.16,0,0,0,693.771,444.9Z" transform="translate(-685.805 -444.9)"/>
    </g>
    <path id="Tracé_66" data-name="Tracé 66" class="cls-25" d="M683.28,438.382a.23.23,0,0,0,.181.23,3.606,3.606,0,0,1,1.393.7c.766.6-.815-1.2-.815-1.2l-.529.118-.216.195Z" transform="translate(-354.337 -256.834)"/>
    <path id="Tracé_67" data-name="Tracé 67" class="cls-26" d="M683.28,438.382a.23.23,0,0,0,.181.23,3.606,3.606,0,0,1,1.393.7c.766.6-.815-1.2-.815-1.2l-.529.118-.216.195Z" transform="translate(-354.337 -256.834)"/>
    <path id="Tracé_68" data-name="Tracé 68" class="cls-25" d="M694.1,440.256a4.875,4.875,0,0,1,2.173-.856.2.2,0,0,0,.2-.2h0A1.734,1.734,0,0,0,694.1,440.256Z" transform="translate(-358.848 -257.188)"/>
    <path id="Tracé_69" data-name="Tracé 69" class="cls-26" d="M696.475,439.191a1.752,1.752,0,0,0-2.375,1.058s1.344-1.031,2.277-.863" transform="translate(-358.848 -257.188)"/>
    <circle id="Ellipse_6" data-name="Ellipse 6" class="cls-22" cx="2.375" cy="2.375" r="2.375" transform="translate(331.238 172.244)"/>
    <path id="Tracé_70" data-name="Tracé 70" class="cls-13" d="M688.411,429.034s.334,1.393,0,1.678-1.01.815-.5,1.226,2.326,1.107,2.932.766,1.3-.237,1.128-.933-1.49-.55-1.511-4.011Z" transform="translate(-356.399 -253.079)"/>
    <path id="Tracé_71" data-name="Tracé 71" class="cls-26" d="M683.7,437.9a8.694,8.694,0,0,1-.146,2.256,13.223,13.223,0,0,0-.265,2.277c.07.5.216,3.816.216,3.816s-.265,2.9,1.149,2.639-.216-3.315-.216-3.315l.07-3.962a3.7,3.7,0,0,0,.7-1.776C685.309,438.882,683.7,437.9,683.7,437.9Z" transform="translate(-354.356 -257.289)"/>
    <path id="Tracé_72" data-name="Tracé 72" class="cls-13" d="M683.671,437.9a8.691,8.691,0,0,1-.146,2.256,13.223,13.223,0,0,0-.265,2.277c.07.5.216,3.816.216,3.816s-.265,2.9,1.149,2.639-.216-3.315-.216-3.315l.07-3.962a3.7,3.7,0,0,0,.7-1.776C685.272,438.882,683.671,437.9,683.671,437.9Z" transform="translate(-354.343 -257.289)"/>
    <path id="Tracé_73" data-name="Tracé 73" class="cls-26" d="M695.666,438.21l-.195,3.1s-.118,4.345-.648,5.445c0,0,.146,3.05-1.274,2.973s.237-3.336.237-3.336.759-3.391.369-4.464l-.369-3.718Z" transform="translate(-358.414 -257.437)"/>
    <path id="Tracé_74" data-name="Tracé 74" class="cls-13" d="M695.7,438.21l-.2,3.1s-.118,4.345-.648,5.445c0,0,.146,3.05-1.274,2.973s.237-3.336.237-3.336.759-3.391.369-4.464l-.369-3.718Z" transform="translate(-358.426 -257.437)"/>
    <path id="Tracé_75" data-name="Tracé 75" class="cls-26" d="M688.11,433.329s1.149.529,1.776-1.044l2.333,1.142a1.455,1.455,0,0,1,.453,1.058l.5,2.688a1.719,1.719,0,0,0-2.235,1.01l.146,1.511h0a1.63,1.63,0,0,1-.077,1.128.251.251,0,0,0,0,.2.738.738,0,0,1-.7.961,14.159,14.159,0,0,0-1.873.146c-.5.146-2.019-.285-2.521,0s-1.56-.216-1.56-.216l.285-1.226s-.195-.6.049-.815a5.184,5.184,0,0,0-.118-2.618s-.863-.815-1.393-.7l.7-3.1a1.88,1.88,0,0,1,1.56-1.01,2.186,2.186,0,0,0,1.511-.432S686.425,433.162,688.11,433.329Z" transform="translate(-355.056 -254.989)"/>
    <path id="Tracé_76" data-name="Tracé 76" class="cls-26" d="M688.228,433.237c.313.084,1.149.174,1.65-1.086l2.333,1.142a1.455,1.455,0,0,1,.453,1.058l.5,2.688a1.719,1.719,0,0,0-2.235,1.01l.146,1.511.1.3a.856.856,0,0,1-.118.766.271.271,0,0,0-.049.279.738.738,0,0,1-.7.961,14.169,14.169,0,0,0-1.873.146c-.5.146-2.019-.286-2.521,0s-1.56-.216-1.56-.216l.285-1.226s-.195-.6.049-.815a5.185,5.185,0,0,0-.118-2.618s-.863-.815-1.393-.7l.7-3.1a1.88,1.88,0,0,1,1.56-1.01,2.187,2.187,0,0,0,1.511-.432s-.564,1.031.919,1.253Z" transform="translate(-355.056 -254.943)"/>
    <path id="Tracé_77" data-name="Tracé 77" class="cls-25" d="M688.225,433.3c.313.084,1.149.174,1.65-1.086l2.333,1.142a1.455,1.455,0,0,1,.453,1.058l.5,2.688a1.719,1.719,0,0,0-2.235,1.01l.146,1.511h0a1.63,1.63,0,0,1-.077,1.128.25.25,0,0,0,0,.2.738.738,0,0,1-.7.961,14.149,14.149,0,0,0-1.873.146c-.5.146-2.019-.286-2.521,0s-1.56-.216-1.56-.216l.285-1.226s-.2-.6.049-.815a5.182,5.182,0,0,0-.118-2.618s-.863-.815-1.393-.7l.7-3.1a1.88,1.88,0,0,1,1.56-1.01,2.187,2.187,0,0,0,1.511-.432s-.564,1.031.919,1.253Z" transform="translate(-355.052 -254.962)"/>
    <path id="Tracé_78" data-name="Tracé 78" class="cls-26" d="M690.81,427.94l-2.04,1.274a6.621,6.621,0,0,1,.118.7,1.963,1.963,0,0,0,.731.139,2.09,2.09,0,0,0,1.323-.6,7.932,7.932,0,0,1-.132-1.511Z" transform="translate(-356.634 -252.993)"/>
    <circle id="Ellipse_7" data-name="Ellipse 7" class="cls-13" cx="1.971" cy="1.971" r="1.971" transform="translate(330.99 173.09)"/>
    <circle id="Ellipse_8" data-name="Ellipse 8" class="cls-22" cx="0.863" cy="0.863" r="0.863" transform="translate(334.583 172.08)"/>
    <path id="Tracé_79" data-name="Tracé 79" class="cls-22" d="M693.964,425.471a.863.863,0,0,1-.863-.8v.063a.863.863,0,0,0,1.727,0s0-.042,0-.063A.863.863,0,0,1,693.964,425.471Z" transform="translate(-358.376 -251.684)"/>
    <path id="Tracé_80" data-name="Tracé 80" class="cls-22" d="M693.32,426.587a.863.863,0,0,1-.7-.947v.056a.864.864,0,0,0,1.7.313v-.063a.863.863,0,0,1-1,.641Z" transform="translate(-358.173 -252.062)"/>
    <path id="Tracé_81" data-name="Tracé 81" class="cls-22" d="M692.36,429.587a.863.863,0,0,1-.7-.947v.056a.864.864,0,0,0,1.7.313v-.063a.863.863,0,0,1-1,.641Z" transform="translate(-357.777 -253.207)"/>
    <path id="Tracé_82" data-name="Tracé 82" class="cls-22" d="M693.964,424.808A.863.863,0,0,1,693.1,424v.063a.863.863,0,0,0,1.727,0V424A.863.863,0,0,1,693.964,424.808Z" transform="translate(-358.376 -251.428)"/>
    <path id="Tracé_83" data-name="Tracé 83" class="cls-22" d="M692.561,424.117a.863.863,0,0,1,.815-.857h-.063a.863.863,0,0,0,0,1.727h.063A.863.863,0,0,1,692.561,424.117Z" transform="translate(-358.034 -251.187)"/>
    <path id="Tracé_84" data-name="Tracé 84" class="cls-26" d="M693.844,436.19a3.113,3.113,0,0,1,0,1.3s-.118,1.128.07,1.323" transform="translate(-358.517 -256.171)"/>
    <path id="Tracé_85" data-name="Tracé 85" class="cls-26" d="M685.464,436.57a3.112,3.112,0,0,1,0,1.3s-.118,1.128.07,1.323" transform="translate(-355.068 -256.316)"/>
    <path id="Tracé_86" data-name="Tracé 86" class="cls-26" d="M685.41,443.2a.857.857,0,0,0,.578,0,1.2,1.2,0,0,1,.7,0" transform="translate(-355.168 -258.689)"/>
    <path id="Tracé_87" data-name="Tracé 87" class="cls-26" d="M685.83,440.643a4.978,4.978,0,0,0,1.992-.313s2.451.6,3.147.167" transform="translate(-355.697 -257.627)"/>
    <rect id="Rectangle_101" data-name="Rectangle 101" class="cls-13" width="1.511" height="0.933" rx="0.467" transform="translate(328.962 192.137)"/>
    <path id="Tracé_88" data-name="Tracé 88" class="cls-27" d="M683.28,455.985l.808-.035.7.111h-.244Z" transform="translate(-354.312 -263.575)"/>
    <path id="Tracé_89" data-name="Tracé 89" class="cls-27" d="M691.1,450.39h.808l.7.07h-.244Z" transform="translate(-357.532 -261.451)"/>
    <path id="Tracé_90" data-name="Tracé 90" class="cls-27" d="M691.1,450.63h.808l.7.07h-.244Z" transform="translate(-357.532 -261.543)"/>
    <path id="Tracé_91" data-name="Tracé 91" class="cls-27" d="M691.1,450.88h.808l.7.07h-.244Z" transform="translate(-357.532 -261.638)"/>
    <path id="Tracé_92" data-name="Tracé 92" class="cls-27" d="M691.1,451.12h.808l.7.07h-.244Z" transform="translate(-357.532 -261.73)"/>
    <path id="Tracé_93" data-name="Tracé 93" class="cls-27" d="M683.28,456.93h.808l.7.084h-.244Z" transform="translate(-354.312 -263.947)"/>
    <path id="Tracé_94" data-name="Tracé 94" class="cls-27" d="M683.28,456.81h.808l.7.084h-.244Z" transform="translate(-354.312 -263.901)"/>
    <path id="Tracé_95" data-name="Tracé 95" class="cls-27" d="M683.28,456.69h.808l.7.084h-.244Z" transform="translate(-354.312 -263.855)"/>
    <path id="Tracé_96" data-name="Tracé 96" class="cls-27" d="M683.28,456.57h.808l.7.084h-.244Z" transform="translate(-354.312 -263.81)"/>
    <path id="Tracé_97" data-name="Tracé 97" class="cls-27" d="M683.28,455.8l.808-.035.7.111h-.244Z" transform="translate(-354.312 -263.506)"/>
    <path id="Tracé_98" data-name="Tracé 98" class="cls-27" d="M683.28,455.595l.808-.035.7.111h-.244Z" transform="translate(-354.312 -263.426)"/>
    <path id="Tracé_99" data-name="Tracé 99" class="cls-26" d="M690.4,425.717a4.763,4.763,0,0,0,.279,2.173,2.584,2.584,0,0,1-.1,2.089.7.7,0,0,0,.613-.153,2.376,2.376,0,0,0,.446-.522,1.392,1.392,0,0,0,.272-.543,2.15,2.15,0,0,0-.139-.919,11.853,11.853,0,0,1-.292-1.622c-.042-.334,0-1.3-.376-1.393S690.468,425.439,690.4,425.717Z" transform="translate(-357.235 -251.961)"/>
    <path id="Tracé_100" data-name="Tracé 100" class="cls-22" d="M690.469,425.687a4.763,4.763,0,0,0,.279,2.173,2.583,2.583,0,0,1-.1,2.089.7.7,0,0,0,.613-.153,2.372,2.372,0,0,0,.446-.522,1.393,1.393,0,0,0,.272-.543,2.153,2.153,0,0,0-.139-.919,11.824,11.824,0,0,1-.292-1.622c-.042-.334,0-1.3-.376-1.393S690.538,425.4,690.469,425.687Z" transform="translate(-357.264 -251.949)"/>
    <path id="Tracé_101" data-name="Tracé 101" class="cls-26" d="M688.769,426.007c.167.174.2.432.341.627a1.233,1.233,0,0,0,.975.39.551.551,0,0,1,.286.063c.153.1.16.32.258.474a.557.557,0,0,0,.815,0,1.345,1.345,0,0,0,.313-.857,5.386,5.386,0,0,0,0-1.038,1.587,1.587,0,0,0-.439-1.058,1.852,1.852,0,0,0-.773-.334,2.291,2.291,0,0,0-1.191-.091,2.146,2.146,0,0,0-.543.272q-.355.23-.7.467c-.258.181-.745.543-.272.738C688.143,425.8,688.519,425.735,688.769,426.007Z" transform="translate(-356.352 -251.62)"/>
    <path id="Tracé_102" data-name="Tracé 102" class="cls-22" d="M688.839,425.967c.167.174.2.432.341.627a1.233,1.233,0,0,0,.975.39.55.55,0,0,1,.285.063c.153.1.16.32.258.474a.557.557,0,0,0,.815,0,1.344,1.344,0,0,0,.313-.857,5.367,5.367,0,0,0,0-1.038,1.588,1.588,0,0,0-.439-1.058,1.852,1.852,0,0,0-.773-.334,2.291,2.291,0,0,0-1.191-.091,2.146,2.146,0,0,0-.543.272q-.355.23-.7.467c-.258.181-.745.543-.272.738C688.213,425.758,688.61,425.7,688.839,425.967Z" transform="translate(-356.381 -251.605)"/>
    <path id="Tracé_103" data-name="Tracé 103" class="cls-27" d="M691.17,450.39h.808l.7.07h-.23Z" transform="translate(-357.561 -261.451)"/>
    <path id="Tracé_104" data-name="Tracé 104" class="cls-27" d="M691.17,450.63h.808l.7.07h-.23Z" transform="translate(-357.561 -261.543)"/>
    <path id="Tracé_105" data-name="Tracé 105" class="cls-27" d="M691.17,450.88h.808l.7.07h-.23Z" transform="translate(-357.561 -261.638)"/>
    <path id="Tracé_106" data-name="Tracé 106" class="cls-27" d="M691.17,451.12h.808l.7.07h-.23Z" transform="translate(-357.561 -261.73)"/>
    <path id="Tracé_107" data-name="Tracé 107" class="cls-27" d="M690.67,464.39h.808l.7.07h-.244Z" transform="translate(-357.355 -266.792)"/>
    <path id="Tracé_108" data-name="Tracé 108" class="cls-27" d="M690.67,464.64h.808l.7.07h-.244Z" transform="translate(-357.355 -266.887)"/>
    <path id="Tracé_109" data-name="Tracé 109" class="cls-27" d="M690.67,464.88h.808l.7.07h-.244Z" transform="translate(-357.355 -266.979)"/>
    <path id="Tracé_110" data-name="Tracé 110" class="cls-27" d="M690.67,465.12h.808l.7.07h-.244Z" transform="translate(-357.355 -267.07)"/>
  </g>
</svg>
